<svg xmlns="http://www.w3.org/2000/svg" width="90" height="95" viewBox="0 0 90 95" fill="none">
  <g clip-path="url(#clip0_267_126)">
    <path d="M63.8649 40.4285L63.8683 40.4292C79.2377 43.4844 89.4978 56.0723 89.3456 71.8074V71.8122C89.3456 78.8149 86.7727 84.4663 82.1453 88.3752C77.5081 92.2922 70.7584 94.5 62.3434 94.5C48.9636 94.5 38.7385 87.0364 26.4659 74.7165C21.518 69.7496 16.2889 62.8046 11.9692 55.5612C7.64664 48.313 4.25836 40.8056 2.96124 34.7162L2.87692 34.3204H2.736C2.26501 33.0803 1.35171 30.2608 1.04851 26.904C0.715898 23.2217 1.12254 18.9559 3.57863 15.407L3.66749 15.2786V15.1224C3.66749 14.9642 3.64227 14.8128 3.62425 14.7044L3.62211 14.6916C3.60158 14.5679 3.59023 14.4926 3.59023 14.4245V14.3891L3.58525 14.354C3.5751 14.2827 3.56473 14.2103 3.55422 14.1369C3.15926 11.379 2.55695 7.17329 5.47769 3.73854C6.5003 2.56612 8.84548 0.5 12.9786 0.5C17.3082 0.5 20.8225 3.06203 22.2293 7.11196C22.2722 7.31692 22.332 7.51713 22.385 7.69448L22.388 7.70439C22.4472 7.90243 22.4979 8.07364 22.5312 8.24055L22.5979 8.57514L22.9337 8.63508C26.2596 9.22862 30.1034 11.5448 34.3916 15.6905L44.8768 29.0797L44.893 29.1004L44.9113 29.1192C50.2925 34.6778 57.7169 39.1625 63.8649 40.4285Z" fill="#F2F0FF" stroke="#35209D"/>
    <path d="M18.4636 16.5959C25.0301 16.5959 29.4336 21.0164 36.0773 29.8572C42.6439 38.698 53.5366 45.7551 62.4207 47.5388C73.3906 49.7102 82.1975 58.551 82.1975 71.8123C82.1975 82.5919 73.6997 87.2449 62.4207 87.2449C51.4507 87.2449 42.6439 80.6531 31.5967 69.5633C20.6267 58.551 9.65674 38.698 9.65674 29.8572C9.65674 21.0164 11.8198 16.5959 18.4636 16.5959Z" fill="#744EAA"/>
    <path d="M12.9785 7.75513C15.7597 7.75513 15.7597 10.547 15.7597 13.2613C15.7597 17.1388 18.5408 15.7429 21.2446 15.7429C23.9485 15.7429 29.5107 21.0164 29.5107 21.0164H21.2446C18.4635 21.0164 21.2446 26.7551 18.4635 26.7551C15.6824 26.7551 15.6824 24.1184 12.9785 24.1184C10.1974 24.1184 9.65666 32.0286 9.65666 32.0286C9.65666 32.0286 6.10301 22.8776 10.2747 18.6898C12.9786 15.9755 7.49357 7.75513 12.9785 7.75513Z" fill="#77B255"/>
  </g>
  <defs>
    <clipPath id="clip0_267_126">
      <rect width="90" height="95" fill="white"/>
    </clipPath>
  </defs>
</svg>