<svg width="82" height="82" viewBox="0 0 82 82" fill="none" xmlns="http://www.w3.org/2000/svg">
<path d="M79.2721 15.6543H58.7506C56.2877 15.6543 53.9179 14.7132 52.1259 13.0235C50.0894 11.1031 47.3198 10.161 44.5347 10.4412L44.3451 10.4602L40.8833 11.1835C38.942 12.0007 37.2605 13.3323 36.0201 15.0346L35.9997 15.0626C34.7476 17.1776 32.272 18.2408 29.876 17.6925L29.5442 17.6165C29.1916 17.5358 28.8469 17.424 28.5141 17.2824L27.7008 16.9364C25.7121 16.0904 23.5731 15.6543 21.4119 15.6543H20.0358C18.2818 15.6543 16.536 15.8927 14.8462 16.363L13.5541 16.7226C11.7249 17.2317 10.0271 18.1292 8.57618 19.3539C7.45561 20.2998 6.50039 21.4257 5.74971 22.6854L5.48488 23.1298C4.56973 24.6655 3.92285 26.3706 3.58149 28.1254C3.1938 30.1184 3.20298 32.1945 3.61822 34.1818L3.9196 35.6243C4.04035 36.2022 4.24944 36.758 4.53951 37.2722L6.21138 40.2358C6.6011 40.9266 6.44329 41.7971 5.83585 42.3071C5.75153 42.3779 5.67453 42.457 5.60598 42.5431L4.17029 44.3477C3.39149 45.3266 2.82681 46.4581 2.51274 47.6689L2.48344 47.7819C2.16525 49.0087 2.1278 50.2915 2.37389 51.5347C2.77047 53.5382 3.88103 55.3296 5.49914 56.5758L7.47897 58.1006C8.07032 58.5561 8.69467 58.967 9.34689 59.3299L11.7024 60.6408C13.0016 61.3639 14.4639 61.7434 15.9508 61.7434H19.5588C22.3911 61.7434 24.6871 64.0394 24.6871 66.8717C24.6871 69.704 26.9831 72 29.8154 72H40.5983C43.1054 72 44.9513 69.6536 44.3612 67.217C43.8833 65.2439 45.0107 63.2367 46.9443 62.6181L47.033 62.5897C47.4242 62.4646 47.8325 62.4008 48.2433 62.4008H49.7016C51.6407 62.4008 53.5264 61.7658 55.0704 60.5928C56.6145 59.4198 58.5002 58.7847 60.4393 58.7847H77.3654C78.4184 58.7847 79.2721 57.9311 79.2721 56.878V47.3666C79.2721 46.3811 78.8962 45.4327 78.2212 44.7147C77.5461 43.9968 77.1702 43.0484 77.1702 42.0629V41.4274V33.3473C77.1702 32.4535 77.4944 31.5899 78.0826 30.9169C78.625 30.2961 78.9443 29.5117 78.9893 28.6886L79.2721 23.5284V15.6543Z" fill="#F2F0FF" stroke="#010102" stroke-width="0.24227"/>
<path d="M43.3703 15.2631C45.5737 14.8068 47.8706 15.1127 49.5326 16.0652L37.7111 23.165C37.4964 21.8921 37.5638 20.7168 37.906 19.6708L37.9061 19.6707C38.6324 17.4482 40.6122 15.8341 43.3703 15.2631Z" fill="#16BC13" stroke="#010102" stroke-width="0.363404"/>
<mask id="path-3-outside-1_597_841" maskUnits="userSpaceOnUse" x="8.26855" y="24.5257" width="31" height="35" fill="black">
<rect fill="white" x="8.26855" y="24.5257" width="31" height="35"/>
<path d="M25.2274 59.0103C18.9284 59.0103 13.017 57.169 9.33454 53.2927L14.7614 46.2669C17.4748 49.5618 21.9326 51.2576 25.712 51.2576C27.9408 51.2576 29.346 50.7246 29.346 49.3679C29.346 47.7205 27.6986 46.8968 23.3862 46.0731L20.1398 45.4432C14.5676 44.3772 9.91599 41.906 9.91599 35.7524C9.91599 29.1627 15.5851 25.674 22.8047 25.674C29.1522 25.674 34.1429 27.9028 37.3894 31.1008L32.011 38.0297C29.4429 35.3163 25.2759 33.4266 21.7872 33.4266C20.0913 33.4266 18.88 34.008 18.88 35.1709C18.88 36.9637 20.7697 37.5936 23.9676 38.3204L27.7955 39.1926C34.8698 40.7916 38.31 43.7473 38.31 49.1257C38.31 55.7154 32.6893 59.0103 25.2274 59.0103Z"/>
</mask>
<path d="M25.2274 59.0103C18.9284 59.0103 13.017 57.169 9.33454 53.2927L14.7614 46.2669C17.4748 49.5618 21.9326 51.2576 25.712 51.2576C27.9408 51.2576 29.346 50.7246 29.346 49.3679C29.346 47.7205 27.6986 46.8968 23.3862 46.0731L20.1398 45.4432C14.5676 44.3772 9.91599 41.906 9.91599 35.7524C9.91599 29.1627 15.5851 25.674 22.8047 25.674C29.1522 25.674 34.1429 27.9028 37.3894 31.1008L32.011 38.0297C29.4429 35.3163 25.2759 33.4266 21.7872 33.4266C20.0913 33.4266 18.88 34.008 18.88 35.1709C18.88 36.9637 20.7697 37.5936 23.9676 38.3204L27.7955 39.1926C34.8698 40.7916 38.31 43.7473 38.31 49.1257C38.31 55.7154 32.6893 59.0103 25.2274 59.0103Z" fill="#F005AE"/>
<path d="M9.33454 53.2927L9.04694 53.0706L8.85649 53.3171L9.07107 53.543L9.33454 53.2927ZM14.7614 46.2669L15.0419 46.0359L14.7523 45.6842L14.4738 46.0447L14.7614 46.2669ZM23.3862 46.0731L23.317 46.4298L23.318 46.43L23.3862 46.0731ZM20.1398 45.4432L20.209 45.0864L20.208 45.0862L20.1398 45.4432ZM37.3894 31.1008L37.6764 31.3236L37.8744 31.0685L37.6444 30.8419L37.3894 31.1008ZM32.011 38.0297L31.747 38.2795L32.0383 38.5872L32.298 38.2525L32.011 38.0297ZM23.9676 38.3204L24.0484 37.9661L24.0482 37.9661L23.9676 38.3204ZM27.7955 39.1926L27.7148 39.5469L27.7154 39.5471L27.7955 39.1926ZM25.2274 58.6469C18.987 58.6469 13.188 56.8214 9.59801 53.0424L9.07107 53.543C12.8461 57.5167 18.8698 59.3737 25.2274 59.3737V58.6469ZM9.62214 53.5148L15.049 46.489L14.4738 46.0447L9.04694 53.0706L9.62214 53.5148ZM14.4809 46.4979C17.2737 49.8892 21.8414 51.621 25.712 51.621V50.8942C22.0237 50.8942 17.6759 49.2343 15.0419 46.0359L14.4809 46.4979ZM25.712 51.621C26.8437 51.621 27.8181 51.4876 28.5223 51.1491C28.8793 50.9774 29.1798 50.7469 29.3905 50.4423C29.6032 50.1348 29.7094 49.7734 29.7094 49.3679H28.9826C28.9826 49.6408 28.9132 49.8548 28.7928 50.0288C28.6703 50.2058 28.4802 50.3629 28.2074 50.494C27.6517 50.7612 26.8091 50.8942 25.712 50.8942V51.621ZM29.7094 49.3679C29.7094 48.8906 29.5885 48.4565 29.3204 48.0677C29.0561 47.6842 28.6639 47.3669 28.1563 47.092C27.151 46.5478 25.6111 46.1281 23.4544 45.7161L23.318 46.43C25.4737 46.8418 26.9136 47.2458 27.8102 47.7312C28.2535 47.9712 28.5427 48.2201 28.722 48.4802C28.8976 48.7349 28.9826 49.0216 28.9826 49.3679H29.7094ZM23.4554 45.7163L20.209 45.0864L20.0705 45.7999L23.317 46.4298L23.4554 45.7163ZM20.208 45.0862C17.446 44.5578 14.9594 43.6886 13.1683 42.2243C11.3948 40.7743 10.2794 38.7221 10.2794 35.7524H9.55258C9.55258 38.9363 10.763 41.1965 12.7083 42.787C14.6361 44.3631 17.2613 45.2625 20.0715 45.8001L20.208 45.0862ZM10.2794 35.7524C10.2794 32.5761 11.6392 30.1644 13.8675 28.5354C16.1079 26.8975 19.2478 26.0374 22.8047 26.0374V25.3106C19.142 25.3106 15.8376 26.1948 13.4385 27.9487C11.0274 29.7114 9.55258 32.3389 9.55258 35.7524H10.2794ZM22.8047 26.0374C29.0654 26.0374 33.9618 28.2345 37.1343 31.3597L37.6444 30.8419C34.3241 27.5712 29.239 25.3106 22.8047 25.3106V26.0374ZM37.1023 30.878L31.7239 37.8069L32.298 38.2525L37.6764 31.3236L37.1023 30.878ZM32.2749 37.7799C29.6446 35.0008 25.3847 33.0632 21.7872 33.0632V33.79C25.167 33.79 29.2412 35.6318 31.747 38.2795L32.2749 37.7799ZM21.7872 33.0632C20.9061 33.0632 20.1092 33.2129 19.5189 33.5462C18.9116 33.8892 18.5166 34.4354 18.5166 35.1709H19.2434C19.2434 34.7436 19.454 34.4176 19.8763 34.1791C20.3157 33.931 20.9724 33.79 21.7872 33.79V33.0632ZM18.5166 35.1709C18.5166 35.6882 18.6546 36.1381 18.9281 36.5264C19.1977 36.9093 19.5845 37.212 20.0515 37.465C20.9745 37.9649 22.2953 38.313 23.8871 38.6748L24.0482 37.9661C22.4419 37.601 21.219 37.2708 20.3976 36.8259C19.9925 36.6064 19.707 36.3701 19.5223 36.1079C19.3415 35.8512 19.2434 35.55 19.2434 35.1709H18.5166ZM23.8869 38.6748L27.7148 39.5469L27.8762 38.8383L24.0484 37.9661L23.8869 38.6748ZM27.7154 39.5471C31.2262 40.3406 33.7827 41.4605 35.459 43.0088C37.1197 44.5427 37.9466 46.5247 37.9466 49.1257H38.6734C38.6734 46.3482 37.7801 44.1632 35.9522 42.4749C34.1398 40.801 31.439 39.6436 27.8756 38.8381L27.7154 39.5471ZM37.9466 49.1257C37.9466 52.3014 36.5996 54.6622 34.3576 56.2421C32.1006 57.8325 28.9116 58.6469 25.2274 58.6469V59.3737C29.0051 59.3737 32.3575 58.5406 34.7762 56.8362C37.21 55.1212 38.6734 52.5396 38.6734 49.1257H37.9466Z" fill="#010102" mask="url(#path-3-outside-1_597_841)"/>
<mask id="path-5-outside-2_597_841" maskUnits="userSpaceOnUse" x="10.1758" y="22.3077" width="31" height="35" fill="black">
<rect fill="white" x="10.1758" y="22.3077" width="31" height="35"/>
<path d="M27.1347 56.7922C20.8356 56.7922 14.9243 54.951 11.2418 51.0747L16.6686 44.0489C19.382 47.3437 23.8398 49.0396 27.6192 49.0396C29.8481 49.0396 31.2532 48.5066 31.2532 47.1499C31.2532 45.5025 29.6058 44.6788 25.2934 43.855L22.047 43.2251C16.4748 42.1591 11.8232 39.688 11.8232 33.5344C11.8232 26.9446 17.4923 23.4559 24.712 23.4559C31.0594 23.4559 36.0502 25.6848 39.2966 28.8828L33.9182 35.8117C31.3501 33.0983 27.1831 31.2086 23.6944 31.2086C21.9985 31.2086 20.7872 31.79 20.7872 32.9529C20.7872 34.7457 22.6769 35.3756 25.8749 36.1024L29.7027 36.9746C36.777 38.5736 40.2172 41.5292 40.2172 46.9076C40.2172 53.4974 34.5966 56.7922 27.1347 56.7922Z"/>
</mask>
<path d="M27.1347 56.7922C20.8356 56.7922 14.9243 54.951 11.2418 51.0747L16.6686 44.0489C19.382 47.3437 23.8398 49.0396 27.6192 49.0396C29.8481 49.0396 31.2532 48.5066 31.2532 47.1499C31.2532 45.5025 29.6058 44.6788 25.2934 43.855L22.047 43.2251C16.4748 42.1591 11.8232 39.688 11.8232 33.5344C11.8232 26.9446 17.4923 23.4559 24.712 23.4559C31.0594 23.4559 36.0502 25.6848 39.2966 28.8828L33.9182 35.8117C31.3501 33.0983 27.1831 31.2086 23.6944 31.2086C21.9985 31.2086 20.7872 31.79 20.7872 32.9529C20.7872 34.7457 22.6769 35.3756 25.8749 36.1024L29.7027 36.9746C36.777 38.5736 40.2172 41.5292 40.2172 46.9076C40.2172 53.4974 34.5966 56.7922 27.1347 56.7922Z" fill="#F2F0FF"/>
<path d="M11.2418 51.0747L10.9542 50.8525L10.7637 51.0991L10.9783 51.325L11.2418 51.0747ZM16.6686 44.0489L16.9491 43.8178L16.6595 43.4661L16.381 43.8267L16.6686 44.0489ZM25.2934 43.855L25.2242 44.2118L25.2252 44.212L25.2934 43.855ZM22.047 43.2251L22.1162 42.8684L22.1153 42.8682L22.047 43.2251ZM39.2966 28.8828L39.5837 29.1056L39.7817 28.8505L39.5516 28.6239L39.2966 28.8828ZM33.9182 35.8117L33.6543 36.0615L33.9455 36.3692L34.2053 36.0345L33.9182 35.8117ZM25.8749 36.1024L25.9556 35.7481L25.9554 35.748L25.8749 36.1024ZM29.7027 36.9746L29.622 37.3289L29.6226 37.329L29.7027 36.9746ZM27.1347 56.4288C20.8943 56.4288 15.0952 54.6033 11.5052 50.8244L10.9783 51.325C14.7533 55.2986 20.777 57.1556 27.1347 57.1556V56.4288ZM11.5294 51.2968L16.9562 44.271L16.381 43.8267L10.9542 50.8525L11.5294 51.2968ZM16.3881 44.2799C19.1809 47.6712 23.7486 49.403 27.6192 49.403V48.6762C23.9309 48.6762 19.5831 47.0163 16.9491 43.8178L16.3881 44.2799ZM27.6192 49.403C28.7509 49.403 29.7254 49.2696 30.4295 48.931C30.7865 48.7594 31.087 48.5288 31.2977 48.2243C31.5104 47.9168 31.6166 47.5554 31.6166 47.1499H30.8898C30.8898 47.4228 30.8204 47.6367 30.7 47.8108C30.5776 47.9877 30.3874 48.1448 30.1146 48.276C29.5589 48.5431 28.7164 48.6762 27.6192 48.6762V49.403ZM31.6166 47.1499C31.6166 46.6726 31.4957 46.2385 31.2276 45.8496C30.9633 45.4662 30.5712 45.1489 30.0635 44.874C29.0583 44.3298 27.5183 43.91 25.3616 43.4981L25.2252 44.212C27.3809 44.6237 28.8209 45.0277 29.7175 45.5131C30.1607 45.7531 30.45 46.0021 30.6293 46.2622C30.8048 46.5169 30.8898 46.8035 30.8898 47.1499H31.6166ZM25.3626 43.4983L22.1162 42.8684L21.9778 43.5819L25.2242 44.2118L25.3626 43.4983ZM22.1153 42.8682C19.3532 42.3398 16.8666 41.4706 15.0755 40.0063C13.302 38.5563 12.1866 36.504 12.1866 33.5344H11.4598C11.4598 36.7183 12.6702 38.9785 14.6155 40.569C16.5433 42.1451 19.1685 43.0445 21.9787 43.5821L22.1153 42.8682ZM12.1866 33.5344C12.1866 30.3581 13.5464 27.9464 15.7747 26.3174C18.0151 24.6794 21.1551 23.8193 24.712 23.8193V23.0925C21.0492 23.0925 17.7448 23.9768 15.3458 25.7306C12.9346 27.4934 11.4598 30.1209 11.4598 33.5344H12.1866ZM24.712 23.8193C30.9726 23.8193 35.869 26.0165 39.0416 29.1417L39.5516 28.6239C36.2313 25.3531 31.1462 23.0925 24.712 23.0925V23.8193ZM39.0095 28.6599L33.6311 35.5889L34.2053 36.0345L39.5837 29.1056L39.0095 28.6599ZM34.1821 35.5619C31.5519 32.7827 27.2919 30.8452 23.6944 30.8452V31.572C27.0743 31.572 31.1484 33.4138 33.6543 36.0615L34.1821 35.5619ZM23.6944 30.8452C22.8133 30.8452 22.0164 30.9949 21.4262 31.3282C20.8188 31.6712 20.4238 32.2174 20.4238 32.9529H21.1506C21.1506 32.5256 21.3613 32.1995 21.7835 31.9611C22.2229 31.713 22.8796 31.572 23.6944 31.572V30.8452ZM20.4238 32.9529C20.4238 33.4702 20.5618 33.92 20.8353 34.3084C21.1049 34.6912 21.4917 34.994 21.9587 35.2469C22.8817 35.7469 24.2026 36.095 25.7943 36.4568L25.9554 35.748C24.3492 35.383 23.1262 35.0528 22.3049 34.6079C21.8997 34.3884 21.6142 34.1521 21.4295 33.8899C21.2488 33.6332 21.1506 33.332 21.1506 32.9529H20.4238ZM25.7941 36.4567L29.622 37.3289L29.7834 36.6203L25.9556 35.7481L25.7941 36.4567ZM29.6226 37.329C33.1334 38.1226 35.6899 39.2425 37.3662 40.7908C39.027 42.3247 39.8538 44.3067 39.8538 46.9076H40.5806C40.5806 44.1302 39.6873 41.9452 37.8594 40.2569C36.047 38.583 33.3463 37.4255 29.7828 36.6201L29.6226 37.329ZM39.8538 46.9076C39.8538 50.0834 38.5069 52.4441 36.2648 54.024C34.0078 55.6145 30.8189 56.4288 27.1347 56.4288V57.1556C30.9123 57.1556 34.2647 56.3226 36.6835 54.6181C39.1172 52.9032 40.5806 50.3216 40.5806 46.9076H39.8538Z" fill="#010102" mask="url(#path-5-outside-2_597_841)"/>
<mask id="path-7-outside-3_597_841" maskUnits="userSpaceOnUse" x="47.6763" y="22.5625" width="27" height="34" fill="black">
<rect fill="white" x="47.6763" y="22.5625" width="27" height="34"/>
<path d="M73.4713 55.5625H48.6144V23.0984H73.4713V30.851H57.3361V35.4541H71.0486V43.2067H57.3361V47.8099H73.4713V55.5625Z"/>
</mask>
<path d="M73.4713 55.5625H48.6144V23.0984H73.4713V30.851H57.3361V35.4541H71.0486V43.2067H57.3361V47.8099H73.4713V55.5625Z" fill="#583ED7"/>
<path d="M73.4713 55.5625V55.9259H73.8347V55.5625H73.4713ZM48.6144 55.5625H48.251V55.9259H48.6144V55.5625ZM48.6144 23.0984V22.735H48.251V23.0984H48.6144ZM73.4713 23.0984H73.8347V22.735H73.4713V23.0984ZM73.4713 30.851V31.2144H73.8347V30.851H73.4713ZM57.3361 30.851V30.4876H56.9727V30.851H57.3361ZM57.3361 35.4541H56.9727V35.8175H57.3361V35.4541ZM71.0486 35.4541H71.412V35.0907H71.0486V35.4541ZM71.0486 43.2067V43.5702H71.412V43.2067H71.0486ZM57.3361 43.2067V42.8433H56.9727V43.2067H57.3361ZM57.3361 47.8099H56.9727V48.1733H57.3361V47.8099ZM73.4713 47.8099H73.8347V47.4465H73.4713V47.8099ZM73.4713 55.1991H48.6144V55.9259H73.4713V55.1991ZM48.9778 55.5625V23.0984H48.251V55.5625H48.9778ZM48.6144 23.4618H73.4713V22.735H48.6144V23.4618ZM73.1079 23.0984V30.851H73.8347V23.0984H73.1079ZM73.4713 30.4876H57.3361V31.2144H73.4713V30.4876ZM56.9727 30.851V35.4541H57.6995V30.851H56.9727ZM57.3361 35.8175H71.0486V35.0907H57.3361V35.8175ZM70.6852 35.4541V43.2067H71.412V35.4541H70.6852ZM71.0486 42.8433H57.3361V43.5702H71.0486V42.8433ZM56.9727 43.2067V47.8099H57.6995V43.2067H56.9727ZM57.3361 48.1733H73.4713V47.4465H57.3361V48.1733ZM73.1079 47.8099V55.5625H73.8347V47.8099H73.1079Z" fill="#010102" mask="url(#path-7-outside-3_597_841)"/>
<mask id="path-9-outside-4_597_841" maskUnits="userSpaceOnUse" x="50.1841" y="20.2831" width="27" height="34" fill="black">
<rect fill="white" x="50.1841" y="20.2831" width="27" height="34"/>
<path d="M75.9791 53.2831H51.1222V20.819H75.9791V28.5716H59.8439V33.1747H73.5564V40.9273H59.8439V45.5305H75.9791V53.2831Z"/>
</mask>
<path d="M75.9791 53.2831H51.1222V20.819H75.9791V28.5716H59.8439V33.1747H73.5564V40.9273H59.8439V45.5305H75.9791V53.2831Z" fill="#F2F0FF"/>
<path d="M75.9791 53.2831V53.6465H76.3425V53.2831H75.9791ZM51.1222 53.2831H50.7588V53.6465H51.1222V53.2831ZM51.1222 20.819V20.4556H50.7588V20.819H51.1222ZM75.9791 20.819H76.3425V20.4556H75.9791V20.819ZM75.9791 28.5716V28.935H76.3425V28.5716H75.9791ZM59.8439 28.5716V28.2082H59.4805V28.5716H59.8439ZM59.8439 33.1747H59.4805V33.5381H59.8439V33.1747ZM73.5564 33.1747H73.9198V32.8113H73.5564V33.1747ZM73.5564 40.9273V41.2908H73.9198V40.9273H73.5564ZM59.8439 40.9273V40.5639H59.4805V40.9273H59.8439ZM59.8439 45.5305H59.4805V45.8939H59.8439V45.5305ZM75.9791 45.5305H76.3425V45.1671H75.9791V45.5305ZM75.9791 52.9197H51.1222V53.6465H75.9791V52.9197ZM51.4856 53.2831V20.819H50.7588V53.2831H51.4856ZM51.1222 21.1824H75.9791V20.4556H51.1222V21.1824ZM75.6157 20.819V28.5716H76.3425V20.819H75.6157ZM75.9791 28.2082H59.8439V28.935H75.9791V28.2082ZM59.4805 28.5716V33.1747H60.2073V28.5716H59.4805ZM59.8439 33.5381H73.5564V32.8113H59.8439V33.5381ZM73.193 33.1747V40.9273H73.9198V33.1747H73.193ZM73.5564 40.5639H59.8439V41.2908H73.5564V40.5639ZM59.4805 40.9273V45.5305H60.2073V40.9273H59.4805ZM59.8439 45.8939H75.9791V45.1671H59.8439V45.8939ZM75.6157 45.5305V53.2831H76.3425V45.5305H75.6157Z" fill="#010102" mask="url(#path-9-outside-4_597_841)"/>
<mask id="path-11-outside-5_597_841" maskUnits="userSpaceOnUse" x="29.0991" y="34.5294" width="30" height="34" fill="black">
<rect fill="white" x="29.0991" y="34.5294" width="30" height="34"/>
<path d="M38.759 67.5294H30.0373V35.0653H43.7497C51.9869 35.0653 58.1406 38.4571 58.1406 47.1303C58.1406 55.852 52.0838 59.2438 43.7497 59.2438H38.759V67.5294ZM43.8466 42.8179H38.759V51.4912H43.8466C47.2384 51.4912 48.9343 49.9406 48.9343 47.1303C48.9343 44.2715 47.2384 42.8179 43.8466 42.8179Z"/>
</mask>
<path d="M38.759 67.5294H30.0373V35.0653H43.7497C51.9869 35.0653 58.1406 38.4571 58.1406 47.1303C58.1406 55.852 52.0838 59.2438 43.7497 59.2438H38.759V67.5294ZM43.8466 42.8179H38.759V51.4912H43.8466C47.2384 51.4912 48.9343 49.9406 48.9343 47.1303C48.9343 44.2715 47.2384 42.8179 43.8466 42.8179Z" fill="#9B52EF"/>
<path d="M38.759 67.5294V67.8928H39.1224V67.5294H38.759ZM30.0373 67.5294H29.6739V67.8928H30.0373V67.5294ZM30.0373 35.0653V34.7019H29.6739V35.0653H30.0373ZM38.759 59.2438V58.8804H38.3956V59.2438H38.759ZM38.759 42.8179V42.4545H38.3956V42.8179H38.759ZM38.759 51.4912H38.3956V51.8546H38.759V51.4912ZM38.759 67.166H30.0373V67.8928H38.759V67.166ZM30.4007 67.5294V35.0653H29.6739V67.5294H30.4007ZM30.0373 35.4287H43.7497V34.7019H30.0373V35.4287ZM43.7497 35.4287C47.8271 35.4287 51.3351 36.2695 53.8156 38.1357C56.2787 39.9889 57.7771 42.8896 57.7771 47.1303H58.504C58.504 42.6978 56.9255 39.566 54.2526 37.5549C51.597 35.557 47.9096 34.7019 43.7497 34.7019V35.4287ZM57.7771 47.1303C57.7771 51.3979 56.301 54.3102 53.8508 56.1681C51.3833 58.0393 47.8763 58.8804 43.7497 58.8804V59.6072C47.9572 59.6072 51.6457 58.7524 54.29 56.7472C56.9517 54.7289 58.504 51.5844 58.504 47.1303H57.7771ZM43.7497 58.8804H38.759V59.6072H43.7497V58.8804ZM38.3956 59.2438V67.5294H39.1224V59.2438H38.3956ZM43.8466 42.4545H38.759V43.1813H43.8466V42.4545ZM38.3956 42.8179V51.4912H39.1224V42.8179H38.3956ZM38.759 51.8546H43.8466V51.1278H38.759V51.8546ZM43.8466 51.8546C45.5913 51.8546 46.9626 51.4565 47.9011 50.6386C48.8484 49.8131 49.2977 48.6105 49.2977 47.1303H48.5709C48.5709 48.4604 48.1723 49.4383 47.4236 50.0906C46.6663 50.7506 45.4938 51.1278 43.8466 51.1278V51.8546ZM49.2977 47.1303C49.2977 45.6272 48.849 44.4337 47.8977 43.6252C46.9576 42.8261 45.5861 42.4545 43.8466 42.4545V43.1813C45.499 43.1813 46.6713 43.5366 47.427 44.179C48.1716 44.8119 48.5709 45.7746 48.5709 47.1303H49.2977Z" fill="#010102" mask="url(#path-11-outside-5_597_841)"/>
<mask id="path-13-outside-6_597_841" maskUnits="userSpaceOnUse" x="31.3789" y="31.5662" width="30" height="34" fill="black">
<rect fill="white" x="31.3789" y="31.5662" width="30" height="34"/>
<path d="M41.0388 64.5662H32.3171V32.1021H46.0295C54.2667 32.1021 60.4203 35.4938 60.4203 44.1671C60.4203 52.8888 54.3636 56.2806 46.0295 56.2806H41.0388V64.5662ZM46.1264 39.8547H41.0388V48.5279H46.1264C49.5182 48.5279 51.2141 46.9774 51.2141 44.1671C51.2141 41.3083 49.5182 39.8547 46.1264 39.8547Z"/>
</mask>
<path d="M41.0388 64.5662H32.3171V32.1021H46.0295C54.2667 32.1021 60.4203 35.4938 60.4203 44.1671C60.4203 52.8888 54.3636 56.2806 46.0295 56.2806H41.0388V64.5662ZM46.1264 39.8547H41.0388V48.5279H46.1264C49.5182 48.5279 51.2141 46.9774 51.2141 44.1671C51.2141 41.3083 49.5182 39.8547 46.1264 39.8547Z" fill="#F2F0FF"/>
<path d="M41.0388 64.5662V64.9296H41.4022V64.5662H41.0388ZM32.3171 64.5662H31.9537V64.9296H32.3171V64.5662ZM32.3171 32.1021V31.7387H31.9537V32.1021H32.3171ZM41.0388 56.2806V55.9172H40.6754V56.2806H41.0388ZM41.0388 39.8547V39.4913H40.6754V39.8547H41.0388ZM41.0388 48.5279H40.6754V48.8913H41.0388V48.5279ZM41.0388 64.2028H32.3171V64.9296H41.0388V64.2028ZM32.6805 64.5662V32.1021H31.9537V64.5662H32.6805ZM32.3171 32.4655H46.0295V31.7387H32.3171V32.4655ZM46.0295 32.4655C50.1068 32.4655 53.6149 33.3063 56.0954 35.1725C58.5585 37.0257 60.0569 39.9264 60.0569 44.1671H60.7837C60.7837 39.7345 59.2053 36.6028 56.5323 34.5917C53.8768 32.5938 50.1894 31.7387 46.0295 31.7387V32.4655ZM60.0569 44.1671C60.0569 48.4347 58.5808 51.347 56.1306 53.2049C53.6631 55.076 50.1561 55.9172 46.0295 55.9172V56.644C50.237 56.644 53.9255 55.7892 56.5698 53.784C59.2315 51.7657 60.7837 48.6212 60.7837 44.1671H60.0569ZM46.0295 55.9172H41.0388V56.644H46.0295V55.9172ZM40.6754 56.2806V64.5662H41.4022V56.2806H40.6754ZM46.1264 39.4913H41.0388V40.2181H46.1264V39.4913ZM40.6754 39.8547V48.5279H41.4022V39.8547H40.6754ZM41.0388 48.8913H46.1264V48.1645H41.0388V48.8913ZM46.1264 48.8913C47.871 48.8913 49.2424 48.4933 50.1809 47.6754C51.1282 46.8499 51.5775 45.6473 51.5775 44.1671H50.8507C50.8507 45.4972 50.4521 46.475 49.7034 47.1274C48.9461 47.7874 47.7736 48.1645 46.1264 48.1645V48.8913ZM51.5775 44.1671C51.5775 42.664 51.1288 41.4705 50.1775 40.662C49.2374 39.8628 47.8659 39.4913 46.1264 39.4913V40.2181C47.7787 40.2181 48.9511 40.5733 49.7068 41.2157C50.4514 41.8487 50.8507 42.8114 50.8507 44.1671H51.5775Z" fill="#010102" mask="url(#path-13-outside-6_597_841)"/>
</svg>
