<svg width="20" height="20" viewBox="0 0 20 20" fill="none" xmlns="http://www.w3.org/2000/svg">
<path d="M9.99994 1.80182C12.67 1.80182 12.9863 1.81203 14.0409 1.86014C15.0158 1.90463 15.5453 2.0675 15.8977 2.20445C16.3321 2.36476 16.7249 2.62037 17.0475 2.9525C17.3796 3.27506 17.6352 3.66795 17.7956 4.10229C17.9325 4.45466 18.0954 4.98415 18.1399 5.95913C18.188 7.01363 18.1982 7.32987 18.1982 10.0001C18.1982 12.6702 18.188 12.9864 18.1399 14.041C18.0954 15.016 17.9325 15.5454 17.7956 15.8978C17.6292 16.3291 17.3744 16.7208 17.0475 17.0476C16.7207 17.3745 16.329 17.6293 15.8977 17.7957C15.5453 17.9326 15.0158 18.0955 14.0409 18.14C12.9866 18.1881 12.6703 18.1983 9.99994 18.1983C7.32956 18.1983 7.01343 18.1881 5.95902 18.14C4.98403 18.0955 4.45458 17.9326 4.10217 17.7957C3.66783 17.6354 3.27494 17.3798 2.95238 17.0476C2.62025 16.7251 2.36464 16.3322 2.20433 15.8978C2.06738 15.5455 1.90447 15.016 1.86002 14.041C1.81191 12.9865 1.8017 12.6702 1.8017 10.0001C1.8017 7.32987 1.81191 7.01371 1.86002 5.95913C1.90451 4.98415 2.06738 4.4547 2.20433 4.10229C2.36465 3.66793 2.6203 3.27502 2.95246 2.95246C3.27502 2.62033 3.66791 2.36472 4.10225 2.20441C4.45462 2.06746 4.98411 1.90455 5.95909 1.8601C7.01359 1.81199 7.32983 1.80178 10 1.80178M10 0C7.28419 0 6.94352 0.0115115 5.87709 0.0601772C4.81267 0.108764 4.08578 0.277784 3.44971 0.525003C2.78247 0.776097 2.17802 1.16972 1.67853 1.67841C1.16972 2.17787 0.775992 2.78232 0.524804 3.44959C0.277784 4.0857 0.108764 4.81259 0.0603757 5.87701C0.0115115 6.94345 0 7.28411 0 9.99994C0 12.7158 0.0115115 13.0564 0.0603757 14.1229C0.108962 15.1873 0.277982 15.9142 0.525201 16.5502C0.776297 17.2175 1.16992 17.8219 1.67861 18.3214C2.1781 18.8301 2.78254 19.2237 3.44979 19.4748C4.0859 19.7221 4.81279 19.8911 5.87717 19.9397C6.94376 19.9883 7.2843 19.9998 10.0001 19.9998C12.7159 19.9998 13.0566 19.9883 14.123 19.9397C15.1874 19.8911 15.9143 19.7221 16.5504 19.4748C17.2147 19.2179 17.818 18.8251 18.3216 18.3214C18.8252 17.8178 19.2181 17.2145 19.475 16.5502C19.7222 15.9141 19.8912 15.1873 19.9398 14.1229C19.9885 13.0563 20 12.7157 20 9.99994C20 7.28415 19.9885 6.94345 19.9398 5.87701C19.8912 4.81259 19.7222 4.0857 19.475 3.44963C19.2239 2.78239 18.8303 2.17794 18.3216 1.67845C17.8221 1.16965 17.2176 0.775952 16.5503 0.524804C15.9142 0.277784 15.1873 0.108764 14.1229 0.0603757C13.0564 0.0115115 12.7158 0 9.99994 0H10Z" fill="#F2F0FF"/>
<path d="M15 6C15.5523 6 16 5.55228 16 5C16 4.44772 15.5523 4 15 4C14.4477 4 14 4.44772 14 5C14 5.55228 14.4477 6 15 6Z" fill="#F2F0FF"/>
<path d="M9.99986 4.86484C8.98423 4.86484 7.99141 5.16601 7.14694 5.73026C6.30248 6.29451 5.6443 7.09651 5.25564 8.03483C4.86697 8.97315 4.76528 10.0056 4.96342 11.0018C5.16156 11.9979 5.65063 12.9129 6.36879 13.631C7.08695 14.3492 8.00194 14.8383 8.99805 15.0364C9.99416 15.2345 11.0267 15.1328 11.965 14.7442C12.9033 14.3555 13.7053 13.6973 14.2695 12.8529C14.8338 12.0084 15.135 11.0156 15.135 9.99995C15.135 8.63803 14.594 7.3319 13.6309 6.36888C12.6679 5.40586 11.3618 4.86484 9.99986 4.86484ZM9.99986 13.3332C9.3406 13.3332 8.69615 13.1377 8.148 12.7715C7.59984 12.4052 7.17261 11.8846 6.92033 11.2755C6.66805 10.6664 6.60204 9.99622 6.73066 9.34963C6.85928 8.70304 7.17675 8.10911 7.64292 7.64294C8.10909 7.17678 8.70303 6.85932 9.34962 6.73071C9.99622 6.60209 10.6664 6.66811 11.2755 6.9204C11.8846 7.17269 12.4052 7.59992 12.7714 8.14808C13.1377 8.69623 13.3332 9.34069 13.3332 9.99995C13.3332 10.884 12.982 11.7318 12.3569 12.3569C11.7317 12.9821 10.8839 13.3332 9.99986 13.3332Z" fill="#F2F0FF"/>
</svg>
