<svg width="493" height="181" viewBox="0 0 493 181" fill="none" xmlns="http://www.w3.org/2000/svg">
<g clip-path="url(#clip0_267_33)">
<path d="M488.045 62.8673L488.114 62.5822L488.914 59.2822L488.917 59.2712C489.302 57.8263 489.501 55.6726 489.601 53.7737C489.7 51.8869 489.7 50.2972 489.7 50C489.7 41.6128 486.839 33.8353 481.729 28.135C477.609 23.624 469.938 18.2 457 18.2C453.539 18.2 450.387 18.5954 447.339 19.4802L446.846 18.6465L447.776 17.7167L408.105 4.36403L406.094 17.6747L406.032 18.0882L405.614 18.0998C394.928 18.3967 386.271 22.3514 380.879 28.6259L380.467 29.106L380.095 28.5934C375.211 21.8535 366.881 18 356 18C349.47 18 343.039 19.3853 337.202 21.9576L336.729 22.166L336.536 21.6863C331.536 9.23431 319.067 2.00002 301 2.00002H266.5H263.8H259.8H256H235H222.7H198.3V22.9V23.8716L197.509 23.3069C192.708 19.8773 186.314 17.9 178.7 17.9C169.993 17.9 161.487 20.3738 154.369 24.9214L154.014 25.1482L153.73 24.8368C149.732 20.448 144.069 17.9 137.1 17.9C133.649 17.9 127.868 18.4931 122.588 22.2089L122.293 22.4161L122.003 22.2026C118.293 19.4688 113.698 17.9 108.3 17.9C106.434 17.9 103.88 18.0965 101.033 18.882L100.968 18.9H100.9H78.9H78.6965L78.5508 18.7579L74.4526 14.7596C74.4524 14.7595 74.4523 14.7593 74.4521 14.7592C65.6569 6.26063 52.9871 1.40002 38.9 1.40002C28.3409 1.40002 19.5887 4.37409 13.4852 9.53192C7.38931 14.6834 3.9 22.0417 3.9 30.9C3.9 38.5763 6.5533 45.1443 11.6501 50.1431L11.9685 50.4553L11.6945 50.8072L-0.340901 66.2673L5.25791 72.1508C6.35905 73.252 7.44196 74.3341 8.62009 75.3159L9.68102 76.2H8.3H4.4V159.5H58.7H73.1H125.2V155.3V154.384L125.97 154.879C131.48 158.421 138.383 160.4 146.4 160.4C153.718 160.4 159.441 158.72 164.073 156.355L164.8 155.983V156.8V159.5H201.1V137.7V137.2H201.6H211.1H211.839L211.564 137.886C210.79 139.82 210.4 141.956 210.4 144.3C210.4 145.168 210.497 146.629 210.887 148.286L210.948 148.545L210.766 148.741C208.149 151.552 206.7 155.031 206.7 159C206.7 160.546 206.966 163.259 208.504 166.166C210.038 169.065 212.854 172.189 218.006 174.544C223.519 177.005 230.842 178.3 240.1 178.3C251.437 178.3 259.85 176.112 265.96 172.762L266.206 172.626L266.45 172.767C271.584 175.729 278.999 178.3 287.4 178.3C294.863 178.3 300.973 176.424 305.869 172.63C310.768 168.833 314.497 163.078 317.126 155.242L488.045 62.8673ZM488.045 62.8673L488.26 63.0667L492.024 66.5556L486.805 73.2938L486.803 73.2958C482.279 79.1976 473.615 86.3 458.6 86.3C452.465 86.3 446.937 85.1126 442.208 82.9455L441.657 82.693L441.514 83.2818C440.195 88.7056 436.823 93.9218 430.72 97.7902C424.609 101.663 415.735 104.2 403.4 104.2C394.141 104.2 386.817 102.905 381.304 100.443C371.914 96.2374 370.191 89.3324 369.999 85.8723L369.974 85.4237L369.526 85.4007C365.698 85.2044 362.377 84.2242 359.553 82.5687L359.279 82.4083L359.018 82.5874C355.309 85.1249 350.71 86.5 345.6 86.5C344.793 86.5 343.925 86.4993 343.162 86.4039L342.889 86.3697L342.714 86.5827L338.114 92.1827L338.055 92.2543L338.026 92.3424L317.126 155.241L488.045 62.8673Z" fill="#F2F0FF" stroke="#35209D"/>
<path d="M43.7 77C31.2 77 19.5 73.4 12.2 65.7L23 51.8C28.4 58.3 37.2 61.7 44.7 61.7C49.1 61.7 51.9 60.6 51.9 58C51.9 54.7 48.5999 53.1 40.0999 51.5L33.7 50.3C22.7 48.2 13.4 43.3 13.4 31.1C13.4 18 24.6 11.1 38.9 11.1C51.5 11.1 61.4 15.5 67.8 21.9L57.0999 35.4C52 30 43.8 26.3 36.9 26.3C33.5 26.3 31.1 27.5 31.1 29.8C31.1 33.4 34.8 34.6 41.2 36L48.7999 37.7C62.7999 40.9 69.5999 46.7 69.5999 57.4C69.5999 70.4 58.5 77 43.7 77Z" fill="#F005AE"/>
<path d="M92.6 76H75.3V28.6H92.6V42.6C93.8 34.7 97.7 27.6 108.2 27.6C116.5 27.6 121.4 33.1 121.4 42.6C122.6 34.7 126.5 27.6 137 27.6C145.3 27.6 150.2 33.1 150.2 42.8V76H132.9V49.5C132.9 43.7 131.8 40.7 127.1 40.7C122.6 40.7 121.3 42.5 121.3 50.2V76H104V49.5C104 43.7 102.9 40.7 98.2 40.7C93.7 40.7 92.4 42.5 92.4 50.2V76H92.6Z" fill="#F005AE"/>
<path d="M168.1 77.0999C161.2 77.0999 155.7 73.5999 155.7 65.0999C155.7 57.3999 160 53.2 170.6 49.9L183.4 46C182.9 43.3 181.5 42.2 177.6 42.2C172.1 42.2 166 45.1999 162 49.5999L154.3 36.9C160.3 31.5 168.6 27.7 178.5 27.7C190.7 27.7 198.2 33.6999 198.2 45.7999V60.0999C198.2 62.1999 198.8 62.9 200.5 62.9H203.3V76H193.5C188.1 76 182.8 73.7 182.8 67V63.4C181.5 69.5 177.8 77.0999 168.1 77.0999ZM171.1 62.7C171.1 64.2 172.3 65.0999 174.7 65.0999C180.4 65.0999 182.9 62.9 182.9 58V56.5999L175.1 59.4C171.9 60.4 171.1 61.4 171.1 62.7Z" fill="#F005AE"/>
<path d="M225 76H207.7V11.7H225V76Z" fill="#F005AE"/>
<path d="M249.9 76H232.6V11.7H249.9V76Z" fill="#F005AE"/>
<path d="M291.2 76H273.9V11.7H301.1C317.4 11.7 329.6 18.3999 329.6 35.5999C329.6 52.8999 317.6 59.5999 301.1 59.5999H291.2V76ZM301.3 27H291.2V44.2H301.3C308 44.2 311.4 41.0999 311.4 35.5999C311.3 29.8999 308 27 301.3 27Z" fill="#583ED7"/>
<path d="M345.6 77.0999C338.7 77.0999 333.2 73.5999 333.2 65.0999C333.2 57.3999 337.5 53.2 348.1 49.9L360.9 46C360.4 43.3 359 42.2 355.1 42.2C349.6 42.2 343.5 45.1999 339.5 49.5999L331.8 36.9C337.8 31.5 346.1 27.7 356 27.7C368.2 27.7 375.7 33.6999 375.7 45.7999V60.0999C375.7 62.1999 376.3 62.9 378 62.9H380.8V76H371C365.6 76 360.3 73.7 360.3 67V63.4C358.9 69.5 355.3 77.0999 345.6 77.0999ZM348.6 62.7C348.6 64.2 349.8 65.0999 352.2 65.0999C357.9 65.0999 360.4 62.9 360.4 58V56.5999L352.6 59.4C349.3 60.4 348.6 61.4 348.6 62.7Z" fill="#583ED7"/>
<path d="M406.7 62.8C402.1 62.8 398.1 61.9 394.7 60.4C394.3 61.2 394 62 394 63C394 65 395.1 66.3 398.2 66.3H416.4C428.2 66.3 432.5 71.2 432.5 78C432.5 86.9 424 94.9 403.2 94.9C386.8 94.9 379.3 90.4 379.3 85.1C379.3 80.4 384.6 78.2 391.8 78.1C387 77.3 383 75.3 383 70.4C383 65.1 387.9 61.1 392.4 59.2C387.4 56.1 384.5 51.2 384.5 45.3C384.5 34.8 393.3 27.7 406.6 27.7C409.3 27.7 411.7 28 414 28.6L415.7 17.1L430.1 21.9L420.8 31.3C425.8 34.4 428.7 39.3 428.7 45.3C428.8 55.6 419.9 62.8 406.7 62.8ZM406.7 51.8C410.2 51.8 412.8 49.8 412.8 45.2C412.8 40.6 410.1 38.6 406.7 38.6C403.3 38.6 400.6 40.6 400.6 45.2C400.6 49.8 403.2 51.8 406.7 51.8ZM405.3 83.2C414.1 83.2 418.2 82 418.2 79.9C418.2 78.4 416.8 78 413.9 78H393.5C393.4 78.3 393.3 78.7 393.3 79.2C393.2 81.8 396.1 83.2 405.3 83.2Z" fill="#583ED7"/>
<path d="M458.6 77C442.3 77 433.3 66.7 433.3 52.3C433.3 37.9 442.5 27.6 457 27.6C473.2 27.6 480.2 38.4 480.2 49.9C480.2 52.2 480 55.8 479.7 56.9H449.3C450.4 61.5 454.1 63.1 458.9 63.1C463.6 63.1 467.1 61.8 468.9 57.6L479.4 67.6C475.7 72.4 469.4 77 458.6 77ZM457 40.5C452.3 40.5 449.3 43 448.9 48H464.6C464.4 43.2 462.2 40.5 457 40.5Z" fill="#583ED7"/>
<path d="M63.1999 150H13.8999V85.7H63.0999V101H31.0999V110.1H58.2999V125.5H31.1999V134.6H63.1999V150Z" fill="#583ED7"/>
<path d="M86 150H68.8V102.6H86V116.7C87.3 108.8 91.7 101.6 101.6 101.6C110.4 101.6 115.8 107.1 115.8 116.8V150H98.5V123.5C98.5 117.7 97.4 114.7 92.3 114.7C87.3 114.7 86.1 116.5 86.1 124.2V150H86Z" fill="#583ED7"/>
<path d="M146.5 151C130.2 151 121.2 140.7 121.2 126.3C121.2 111.9 130.4 101.6 144.9 101.6C161.1 101.6 168.1 112.4 168.1 123.9C168.1 126.2 167.9 129.8 167.6 130.9H137.2C138.3 135.5 142 137.1 146.8 137.1C151.5 137.1 155 135.8 156.8 131.6L167.3 141.6C163.6 146.4 157.3 151 146.5 151ZM144.9 114.5C140.2 114.5 137.2 117 136.8 122H152.5C152.3 117.2 150.1 114.5 144.9 114.5Z" fill="#583ED7"/>
<path d="M191.6 150H174.3V102.6H191.6V118.6C193 110.4 197.6 101.6 207.2 101.6C215.5 101.6 218.5 106.8 218.5 114.7C218.5 120.5 216.6 125.4 215.2 127.8H199.4C201.1 125.8 203 122.1 203 119.3C203 116.6 201.8 114.8 199.1 114.8C195.2 114.8 191.5 118.5 191.5 126.2V150H191.6Z" fill="#583ED7"/>
<path d="M243.5 136.8C238.9 136.8 234.9 135.9 231.5 134.4C231.1 135.2 230.8 136 230.8 137C230.8 139 231.9 140.3 235 140.3H253.2C265 140.3 269.3 145.2 269.3 152C269.3 160.9 260.8 168.9 240 168.9C223.6 168.9 216.1 164.4 216.1 159.1C216.1 154.4 221.4 152.2 228.6 152.1C223.8 151.3 219.8 149.3 219.8 144.4C219.8 139.1 224.7 135.1 229.2 133.2C224.2 130.1 221.3 125.2 221.3 119.3C221.3 108.8 230.1 101.7 243.4 101.7C246.1 101.7 248.5 102 250.8 102.6L252.5 91.1L266.9 95.9L257.6 105.3C262.6 108.4 265.5 113.3 265.5 119.3C265.6 129.6 256.7 136.8 243.5 136.8ZM243.5 125.8C247 125.8 249.6 123.8 249.6 119.2C249.6 114.6 246.9 112.6 243.5 112.6C240 112.6 237.4 114.6 237.4 119.2C237.4 123.8 240 125.8 243.5 125.8ZM242 157.2C250.8 157.2 254.9 156 254.9 153.9C254.9 152.4 253.5 152 250.6 152H230.2C230.1 152.3 230 152.7 230 153.2C229.9 155.8 232.9 157.2 242 157.2Z" fill="#583ED7"/>
<path d="M287.4 168.8C280.1 168.8 273.1 166.1 269.2 163.2L275.2 148.1C278.8 151.4 282.9 153.6 286.9 153.6C290.4 153.6 292.2 152.6 293.6 149L294.5 146.7H284.2L269 102.5H288.4L292.9 119.5L296.5 139.2L300.2 119.5L304.8 102.5H324.6L308.1 152.2C304.2 164 297.9 168.8 287.4 168.8Z" fill="#583ED7"/>
</g>
<defs>
<clipPath id="clip0_267_33">
<rect width="492.7" height="181" fill="white"/>
</clipPath>
</defs>
</svg>
