<svg width="83" height="67" viewBox="0 0 83 67" fill="none" xmlns="http://www.w3.org/2000/svg">
<path d="M82.1294 6.00973H60.318C57.7002 6.00973 55.1814 5.00945 53.2769 3.21353C51.1123 1.17244 48.1686 0.171073 45.2084 0.468891L45.0069 0.489164L41.3275 1.25785C39.2642 2.12651 37.477 3.54177 36.1586 5.35112L36.1369 5.3808C34.8061 7.62881 32.1749 8.75883 29.6283 8.176L29.2756 8.09527C28.9009 8.00951 28.5345 7.8907 28.1808 7.74022L27.3164 7.37247C25.2027 6.47322 22.9292 6.00973 20.6322 6.00973H19.1695C17.3053 6.00973 15.4497 6.26313 13.6537 6.76298L12.2804 7.14521C10.3363 7.68629 8.53165 8.64019 6.98957 9.94187C5.79856 10.9472 4.78329 12.1439 3.98542 13.4828L3.70394 13.9551C2.73127 15.5873 2.04372 17.3997 1.6809 19.2648C1.26884 21.383 1.2786 23.5896 1.71994 25.7019L2.04027 27.235C2.1686 27.8492 2.39084 28.44 2.69914 28.9865L4.47611 32.1364C4.89033 32.8707 4.72259 33.7958 4.07697 34.3379C3.98736 34.4132 3.90551 34.4972 3.83266 34.5888L2.30671 36.5068C1.47896 37.5473 0.878779 38.7499 0.544976 40.0368L0.513829 40.1569C0.175633 41.4608 0.135835 42.8242 0.397398 44.1456C0.818907 46.2751 1.99928 48.179 3.7191 49.5036L5.82337 51.1242C6.4519 51.6083 7.1155 52.045 7.80871 52.4308L10.3123 53.8241C11.6932 54.5926 13.2474 54.996 14.8277 54.996H18.6625C21.6728 54.996 24.1132 57.4363 24.1132 60.4467C24.1132 63.457 26.5535 65.8973 29.5639 65.8973H41.0246C43.6893 65.8973 45.6512 63.4034 45.024 60.8137C44.5161 58.7165 45.7143 56.5832 47.7695 55.9257L47.8638 55.8955C48.2796 55.7625 48.7135 55.6948 49.1501 55.6948H50.7001C52.7611 55.6948 54.7654 55.0198 56.4065 53.7731C58.0476 52.5263 60.0518 51.8514 62.1128 51.8514H80.1029C81.2221 51.8514 82.1294 50.944 82.1294 49.8248V39.7155C82.1294 38.668 81.7299 37.66 81.0124 36.8969C80.2949 36.1338 79.8955 35.1258 79.8955 34.0783V33.4029V24.8149C79.8955 23.8649 80.24 22.9471 80.8651 22.2317C81.4417 21.572 81.781 20.7382 81.8289 19.8633L82.1294 14.3788V6.00973Z" fill="#F2F0FF" stroke="black" stroke-width="0.24227"/>
<path d="M42.3006 23.276C42.2865 23.2305 42.2705 23.1776 42.2529 23.1177C42.1864 22.8916 42.0979 22.5654 42.0087 22.1629C41.8306 21.3584 41.6493 20.246 41.6384 19.0167L41.6368 18.8401L41.8134 18.834C42.5194 18.8097 43.2195 18.7295 43.9092 18.5941C45.503 18.2644 46.5202 17.6242 47.1541 16.5953C47.7299 15.6607 47.921 14.5191 48.1289 13.2637L48.1304 13.2548C48.4449 11.3502 48.8094 9.14326 50.7788 7.09288L50.7788 7.09279C50.8108 7.05953 50.8375 7.01373 50.8534 6.95734C50.8692 6.90094 50.8732 6.83762 50.8633 6.77349C50.8534 6.70936 50.8304 6.64869 50.7973 6.59718L50.9503 6.49943L50.7973 6.59717C50.7642 6.54565 50.7233 6.50672 50.6805 6.48152L50.611 6.44065L50.6107 6.4391C48.8382 5.42307 46.3879 5.09687 44.0378 5.58271C41.0985 6.19039 38.9869 7.90832 38.2122 10.2752L38.2122 10.2753C37.8472 11.3891 37.7754 12.6401 38.0043 13.9945L42.3006 23.276ZM42.3006 23.276L40.9073 23.564C40.4864 21.4671 40.4092 19.3242 40.6802 17.2546L40.6803 17.2546L40.6809 17.2492C40.7901 16.1602 41.0377 15.1098 41.4149 14.1323L41.4151 14.1318C42.24 11.9759 43.5624 10.3877 44.6808 9.33751C45.2397 8.81269 45.7466 8.42324 46.113 8.16545C46.2962 8.03659 46.4441 7.94072 46.5457 7.87738C46.5964 7.84571 46.6356 7.82218 46.6618 7.80673L46.6912 7.7896L46.6983 7.78557L46.6998 7.78469L46.7001 7.78456L46.7001 7.78453L46.7001 7.78452L46.6999 7.78408L46.5736 7.44821C42.4315 8.30454 39.5794 12.4942 39.0514 17.2581M42.3006 23.276L39.0514 17.2581M39.0514 17.2581C38.529 16.1166 38.1784 15.0234 38.0043 13.9945L39.0514 17.2581Z" fill="#16BC13" stroke="black" stroke-width="0.363404"/>
<mask id="path-3-outside-1_267_139" maskUnits="userSpaceOnUse" x="6.6626" y="15.5645" width="31" height="35" fill="black">
<rect fill="white" x="6.6626" y="15.5645" width="31" height="35"/>
<path d="M23.6215 50.0491C17.3225 50.0491 11.4111 48.2078 7.72858 44.3315L13.1554 37.3057C15.8688 40.6006 20.3266 42.2965 24.106 42.2965C26.3349 42.2965 27.7401 41.7635 27.7401 40.4068C27.7401 38.7593 26.0926 37.9356 21.7802 37.1119L18.5338 36.482C12.9616 35.416 8.31003 32.9448 8.31003 26.7912C8.31003 20.2015 13.9791 16.7128 21.1988 16.7128C27.5462 16.7128 32.537 18.9417 35.7834 22.1396L30.405 29.0685C27.837 26.3551 23.6699 24.4654 20.1812 24.4654C18.4854 24.4654 17.274 25.0469 17.274 26.2098C17.274 28.0025 19.1637 28.6325 22.3617 29.3593L26.1895 30.2314C33.2638 31.8304 36.704 34.7861 36.704 40.1645C36.704 46.7542 31.0834 50.0491 23.6215 50.0491Z"/>
</mask>
<path d="M23.6215 50.0491C17.3225 50.0491 11.4111 48.2078 7.72858 44.3315L13.1554 37.3057C15.8688 40.6006 20.3266 42.2965 24.106 42.2965C26.3349 42.2965 27.7401 41.7635 27.7401 40.4068C27.7401 38.7593 26.0926 37.9356 21.7802 37.1119L18.5338 36.482C12.9616 35.416 8.31003 32.9448 8.31003 26.7912C8.31003 20.2015 13.9791 16.7128 21.1988 16.7128C27.5462 16.7128 32.537 18.9417 35.7834 22.1396L30.405 29.0685C27.837 26.3551 23.6699 24.4654 20.1812 24.4654C18.4854 24.4654 17.274 25.0469 17.274 26.2098C17.274 28.0025 19.1637 28.6325 22.3617 29.3593L26.1895 30.2314C33.2638 31.8304 36.704 34.7861 36.704 40.1645C36.704 46.7542 31.0834 50.0491 23.6215 50.0491Z" fill="#F005AE"/>
<path d="M7.72858 44.3315L7.44098 44.1094L7.25053 44.3559L7.46512 44.5818L7.72858 44.3315ZM13.1554 37.3057L13.4359 37.0747L13.1463 36.723L12.8678 37.0836L13.1554 37.3057ZM21.7802 37.1119L21.711 37.4686L21.712 37.4688L21.7802 37.1119ZM18.5338 36.482L18.603 36.1252L18.6021 36.1251L18.5338 36.482ZM35.7834 22.1396L36.0705 22.3625L36.2685 22.1074L36.0384 21.8807L35.7834 22.1396ZM30.405 29.0685L30.1411 29.3183L30.4323 29.626L30.6921 29.2914L30.405 29.0685ZM22.3617 29.3593L22.4424 29.0049L22.4422 29.0049L22.3617 29.3593ZM26.1895 30.2314L26.1088 30.5858L26.1094 30.5859L26.1895 30.2314ZM23.6215 49.6857C17.3811 49.6857 11.5821 47.8602 7.99205 44.0812L7.46512 44.5818C11.2401 48.5555 17.2638 50.4125 23.6215 50.4125V49.6857ZM8.01618 44.5537L13.443 37.5278L12.8678 37.0836L7.44098 44.1094L8.01618 44.5537ZM12.8749 37.5367C15.6677 40.928 20.2354 42.6599 24.106 42.6599V41.9331C20.4178 41.9331 16.07 40.2731 13.4359 37.0747L12.8749 37.5367ZM24.106 42.6599C25.2377 42.6599 26.2122 42.5264 26.9163 42.1879C27.2734 42.0162 27.5738 41.7857 27.7845 41.4811C27.9972 41.1737 28.1035 40.8122 28.1035 40.4068H27.3766C27.3766 40.6797 27.3072 40.8936 27.1868 41.0676C27.0644 41.2446 26.8743 41.4017 26.6014 41.5329C26.0457 41.8 25.2032 41.9331 24.106 41.9331V42.6599ZM28.1035 40.4068C28.1035 39.9294 27.9825 39.4953 27.7145 39.1065C27.4501 38.723 27.058 38.4057 26.5503 38.1309C25.5451 37.5866 24.0051 37.1669 21.8484 36.7549L21.712 37.4688C23.8677 37.8806 25.3077 38.2846 26.2043 38.77C26.6475 39.01 26.9368 39.259 27.1161 39.519C27.2917 39.7737 27.3766 40.0604 27.3766 40.4068H28.1035ZM21.8494 36.7551L18.603 36.1252L18.4646 36.8387L21.711 37.4686L21.8494 36.7551ZM18.6021 36.1251C15.8401 35.5967 13.3534 34.7275 11.5624 33.2631C9.78884 31.8131 8.67344 29.7609 8.67344 26.7912H7.94663C7.94663 29.9752 9.15701 32.2353 11.1023 33.8258C13.0301 35.402 15.6554 36.3013 18.4655 36.8389L18.6021 36.1251ZM8.67344 26.7912C8.67344 23.615 10.0332 21.2033 12.2615 19.5742C14.5019 17.9363 17.6419 17.0762 21.1988 17.0762V16.3494C17.536 16.3494 14.2316 17.2336 11.8326 18.9875C9.42141 20.7502 7.94663 23.3777 7.94663 26.7912H8.67344ZM21.1988 17.0762C27.4594 17.0762 32.3559 19.2733 35.5284 22.3985L36.0384 21.8807C32.7181 18.61 27.6331 16.3494 21.1988 16.3494V17.0762ZM35.4963 21.9168L30.1179 28.8457L30.6921 29.2914L36.0705 22.3625L35.4963 21.9168ZM30.669 28.8187C28.0387 26.0396 23.7788 24.102 20.1812 24.102V24.8288C23.5611 24.8288 27.6352 26.6706 30.1411 29.3183L30.669 28.8187ZM20.1812 24.102C19.3002 24.102 18.5033 24.2517 17.913 24.5851C17.3056 24.9281 16.9106 25.4742 16.9106 26.2098H17.6374C17.6374 25.7824 17.8481 25.4564 18.2704 25.2179C18.7097 24.9698 19.3664 24.8288 20.1812 24.8288V24.102ZM16.9106 26.2098C16.9106 26.7271 17.0486 27.1769 17.3221 27.5652C17.5917 27.9481 17.9785 28.2508 18.4455 28.5038C19.3685 29.0037 20.6894 29.3519 22.2811 29.7136L22.4422 29.0049C20.836 28.6398 19.613 28.3096 18.7917 27.8647C18.3865 27.6452 18.101 27.4089 17.9164 27.1468C17.7356 26.8901 17.6374 26.5888 17.6374 26.2098H16.9106ZM22.2809 29.7136L26.1088 30.5858L26.2703 29.8771L22.4424 29.0049L22.2809 29.7136ZM26.1094 30.5859C29.6203 31.3794 32.1767 32.4994 33.8531 34.0476C35.5138 35.5815 36.3406 37.5635 36.3406 40.1645H37.0674C37.0674 37.387 36.1741 35.202 34.3462 33.5137C32.5339 31.8398 29.8331 30.6824 26.2696 29.877L26.1094 30.5859ZM36.3406 40.1645C36.3406 43.3402 34.9937 45.701 32.7516 47.2809C30.4946 48.8713 27.3057 49.6857 23.6215 49.6857V50.4125C27.3992 50.4125 30.7515 49.5794 33.1703 47.875C35.604 46.16 37.0674 43.5785 37.0674 40.1645H36.3406Z" fill="black" mask="url(#path-3-outside-1_267_139)"/>
<mask id="path-5-outside-2_267_139" maskUnits="userSpaceOnUse" x="8.68994" y="13.2071" width="31" height="35" fill="black">
<rect fill="white" x="8.68994" y="13.2071" width="31" height="35"/>
<path d="M25.6488 47.6916C19.3498 47.6916 13.4384 45.8504 9.75593 41.9741L15.1828 34.9482C17.8962 38.2431 22.3539 39.939 26.1334 39.939C28.3622 39.939 29.7674 39.406 29.7674 38.0493C29.7674 36.4019 28.12 35.5782 23.8076 34.7544L20.5612 34.1245C14.989 33.0585 10.3374 30.5874 10.3374 24.4337C10.3374 17.844 16.0065 14.3553 23.2261 14.3553C29.5736 14.3553 34.5643 16.5842 37.8107 19.7822L32.4324 26.7111C29.8643 23.9977 25.6973 22.108 22.2086 22.108C20.5127 22.108 19.3014 22.6894 19.3014 23.8523C19.3014 25.6451 21.1911 26.275 24.389 27.0018L28.2169 27.874C35.2911 29.473 38.7314 32.4286 38.7314 37.807C38.7314 44.3968 33.1107 47.6916 25.6488 47.6916Z"/>
</mask>
<path d="M25.6488 47.6916C19.3498 47.6916 13.4384 45.8504 9.75593 41.9741L15.1828 34.9482C17.8962 38.2431 22.3539 39.939 26.1334 39.939C28.3622 39.939 29.7674 39.406 29.7674 38.0493C29.7674 36.4019 28.12 35.5782 23.8076 34.7544L20.5612 34.1245C14.989 33.0585 10.3374 30.5874 10.3374 24.4337C10.3374 17.844 16.0065 14.3553 23.2261 14.3553C29.5736 14.3553 34.5643 16.5842 37.8107 19.7822L32.4324 26.7111C29.8643 23.9977 25.6973 22.108 22.2086 22.108C20.5127 22.108 19.3014 22.6894 19.3014 23.8523C19.3014 25.6451 21.1911 26.275 24.389 27.0018L28.2169 27.874C35.2911 29.473 38.7314 32.4286 38.7314 37.807C38.7314 44.3968 33.1107 47.6916 25.6488 47.6916Z" fill="#F2F0FF"/>
<path d="M9.75593 41.9741L9.46833 41.7519L9.27788 41.9985L9.49246 42.2244L9.75593 41.9741ZM15.1828 34.9482L15.4633 34.7172L15.1737 34.3655L14.8952 34.7261L15.1828 34.9482ZM23.8076 34.7544L23.7383 35.1112L23.7394 35.1114L23.8076 34.7544ZM20.5612 34.1245L20.6304 33.7678L20.6294 33.7676L20.5612 34.1245ZM37.8107 19.7822L38.0978 20.005L38.2958 19.7499L38.0658 19.5233L37.8107 19.7822ZM32.4324 26.7111L32.1684 26.9609L32.4596 27.2686L32.7194 26.9339L32.4324 26.7111ZM24.389 27.0018L24.4697 26.6475L24.4695 26.6474L24.389 27.0018ZM28.2169 27.874L28.1361 28.2283L28.1368 28.2284L28.2169 27.874ZM25.6488 47.3282C19.4084 47.3282 13.6094 45.5027 10.0194 41.7238L9.49246 42.2244C13.2674 46.198 19.2912 48.055 25.6488 48.055V47.3282ZM10.0435 42.1962L15.4704 35.1704L14.8952 34.7261L9.46833 41.7519L10.0435 42.1962ZM14.9022 35.1793C17.6951 38.5706 22.2628 40.3024 26.1334 40.3024V39.5756C22.4451 39.5756 18.0973 37.9157 15.4633 34.7172L14.9022 35.1793ZM26.1334 40.3024C27.2651 40.3024 28.2395 40.169 28.9437 39.8304C29.3007 39.6588 29.6012 39.4282 29.8119 39.1237C30.0246 38.8162 30.1308 38.4548 30.1308 38.0493H29.404C29.404 38.3222 29.3346 38.5361 29.2142 38.7102C29.0917 38.8871 28.9016 39.0442 28.6287 39.1754C28.0731 39.4425 27.2305 39.5756 26.1334 39.5756V40.3024ZM30.1308 38.0493C30.1308 37.572 30.0099 37.1379 29.7418 36.749C29.4774 36.3656 29.0853 36.0483 28.5776 35.7734C27.5724 35.2292 26.0325 34.8094 23.8757 34.3975L23.7394 35.1114C25.8951 35.5231 27.335 35.9271 28.2316 36.4125C28.6748 36.6525 28.9641 36.9015 29.1434 37.1616C29.319 37.4163 29.404 37.7029 29.404 38.0493H30.1308ZM23.8768 34.3977L20.6304 33.7678L20.4919 34.4813L23.7383 35.1112L23.8768 34.3977ZM20.6294 33.7676C17.8674 33.2392 15.3808 32.37 13.5897 30.9057C11.8162 29.4557 10.7008 27.4034 10.7008 24.4337H9.97397C9.97397 27.6177 11.1844 29.8779 13.1297 31.4684C15.0575 33.0445 17.6827 33.9439 20.4929 34.4815L20.6294 33.7676ZM10.7008 24.4337C10.7008 21.2575 12.0606 18.8458 14.2889 17.2168C16.5293 15.5788 19.6692 14.7187 23.2261 14.7187V13.9919C19.5634 13.9919 16.2589 14.8762 13.8599 16.63C11.4488 18.3928 9.97397 21.0203 9.97397 24.4337H10.7008ZM23.2261 14.7187C29.4868 14.7187 34.3832 16.9159 37.5557 20.0411L38.0658 19.5233C34.7455 16.2525 29.6604 13.9919 23.2261 13.9919V14.7187ZM37.5237 19.5593L32.1453 26.4883L32.7194 26.9339L38.0978 20.005L37.5237 19.5593ZM32.6963 26.4613C30.066 23.6821 25.8061 21.7446 22.2086 21.7446V22.4714C25.5884 22.4714 29.6626 24.3132 32.1684 26.9609L32.6963 26.4613ZM22.2086 21.7446C21.3275 21.7446 20.5306 21.8943 19.9403 22.2276C19.3329 22.5706 18.9379 23.1168 18.9379 23.8523H19.6648C19.6648 23.425 19.8754 23.0989 20.2977 22.8605C20.7371 22.6124 21.3938 22.4714 22.2086 22.4714V21.7446ZM18.9379 23.8523C18.9379 24.3696 19.076 24.8194 19.3495 25.2078C19.6191 25.5906 20.0059 25.8934 20.4729 26.1463C21.3959 26.6463 22.7167 26.9944 24.3085 27.3562L24.4695 26.6474C22.8633 26.2824 21.6404 25.9522 20.819 25.5073C20.4139 25.2878 20.1283 25.0515 19.9437 24.7893C19.7629 24.5326 19.6648 24.2314 19.6648 23.8523H18.9379ZM24.3083 27.3561L28.1361 28.2283L28.2976 27.5197L24.4697 26.6475L24.3083 27.3561ZM28.1368 28.2284C31.6476 29.022 34.2041 30.1419 35.8804 31.6902C37.5411 33.2241 38.368 35.2061 38.368 37.807H39.0948C39.0948 35.0296 38.2015 32.8446 36.3735 31.1563C34.5612 29.4824 31.8604 28.3249 28.297 27.5195L28.1368 28.2284ZM38.368 37.807C38.368 40.9828 37.021 43.3435 34.779 44.9234C32.5219 46.5139 29.333 47.3282 25.6488 47.3282V48.055C29.4265 48.055 32.7789 47.222 35.1976 45.5175C37.6314 43.8026 39.0948 41.221 39.0948 37.807H38.368Z" fill="black" mask="url(#path-5-outside-2_267_139)"/>
<mask id="path-7-outside-3_267_139" maskUnits="userSpaceOnUse" x="48.4849" y="13.415" width="27" height="34" fill="black">
<rect fill="white" x="48.4849" y="13.415" width="27" height="34"/>
<path d="M74.2799 46.415H49.423V13.9509H74.2799V21.7035H58.1447V26.3067H71.8572V34.0593H58.1447V38.6624H74.2799V46.415Z"/>
</mask>
<path d="M74.2799 46.415H49.423V13.9509H74.2799V21.7035H58.1447V26.3067H71.8572V34.0593H58.1447V38.6624H74.2799V46.415Z" fill="#583ED7"/>
<path d="M74.2799 46.415V46.7784H74.6433V46.415H74.2799ZM49.423 46.415H49.0596V46.7784H49.423V46.415ZM49.423 13.9509V13.5875H49.0596V13.9509H49.423ZM74.2799 13.9509H74.6433V13.5875H74.2799V13.9509ZM74.2799 21.7035V22.0669H74.6433V21.7035H74.2799ZM58.1447 21.7035V21.3401H57.7813V21.7035H58.1447ZM58.1447 26.3067H57.7813V26.6701H58.1447V26.3067ZM71.8572 26.3067H72.2206V25.9433H71.8572V26.3067ZM71.8572 34.0593V34.4227H72.2206V34.0593H71.8572ZM58.1447 34.0593V33.6959H57.7813V34.0593H58.1447ZM58.1447 38.6624H57.7813V39.0258H58.1447V38.6624ZM74.2799 38.6624H74.6433V38.299H74.2799V38.6624ZM74.2799 46.0516H49.423V46.7784H74.2799V46.0516ZM49.7864 46.415V13.9509H49.0596V46.415H49.7864ZM49.423 14.3143H74.2799V13.5875H49.423V14.3143ZM73.9165 13.9509V21.7035H74.6433V13.9509H73.9165ZM74.2799 21.3401H58.1447V22.0669H74.2799V21.3401ZM57.7813 21.7035V26.3067H58.5081V21.7035H57.7813ZM58.1447 26.6701H71.8572V25.9433H58.1447V26.6701ZM71.4938 26.3067V34.0593H72.2206V26.3067H71.4938ZM71.8572 33.6959H58.1447V34.4227H71.8572V33.6959ZM57.7813 34.0593V38.6624H58.5081V34.0593H57.7813ZM58.1447 39.0258H74.2799V38.299H58.1447V39.0258ZM73.9165 38.6624V46.415H74.6433V38.6624H73.9165Z" fill="black" mask="url(#path-7-outside-3_267_139)"/>
<mask id="path-9-outside-4_267_139" maskUnits="userSpaceOnUse" x="51.1499" y="10.9923" width="27" height="34" fill="black">
<rect fill="white" x="51.1499" y="10.9923" width="27" height="34"/>
<path d="M76.9449 43.9923H52.0881V11.5282H76.9449V19.2808H60.8098V23.884H74.5222V31.6366H60.8098V36.2397H76.9449V43.9923Z"/>
</mask>
<path d="M76.9449 43.9923H52.0881V11.5282H76.9449V19.2808H60.8098V23.884H74.5222V31.6366H60.8098V36.2397H76.9449V43.9923Z" fill="#F2F0FF"/>
<path d="M76.9449 43.9923V44.3557H77.3083V43.9923H76.9449ZM52.0881 43.9923H51.7247V44.3557H52.0881V43.9923ZM52.0881 11.5282V11.1648H51.7247V11.5282H52.0881ZM76.9449 11.5282H77.3083V11.1648H76.9449V11.5282ZM76.9449 19.2808V19.6442H77.3083V19.2808H76.9449ZM60.8098 19.2808V18.9174H60.4464V19.2808H60.8098ZM60.8098 23.884H60.4464V24.2474H60.8098V23.884ZM74.5222 23.884H74.8856V23.5206H74.5222V23.884ZM74.5222 31.6366V32H74.8856V31.6366H74.5222ZM60.8098 31.6366V31.2732H60.4464V31.6366H60.8098ZM60.8098 36.2397H60.4464V36.6031H60.8098V36.2397ZM76.9449 36.2397H77.3083V35.8763H76.9449V36.2397ZM76.9449 43.6289H52.0881V44.3557H76.9449V43.6289ZM52.4515 43.9923V11.5282H51.7247V43.9923H52.4515ZM52.0881 11.8916H76.9449V11.1648H52.0881V11.8916ZM76.5815 11.5282V19.2808H77.3083V11.5282H76.5815ZM76.9449 18.9174H60.8098V19.6442H76.9449V18.9174ZM60.4464 19.2808V23.884H61.1732V19.2808H60.4464ZM60.8098 24.2474H74.5222V23.5206H60.8098V24.2474ZM74.1588 23.884V31.6366H74.8856V23.884H74.1588ZM74.5222 31.2732H60.8098V32H74.5222V31.2732ZM60.4464 31.6366V36.2397H61.1732V31.6366H60.4464ZM60.8098 36.6031H76.9449V35.8763H60.8098V36.6031ZM76.5815 36.2397V43.9923H77.3083V36.2397H76.5815Z" fill="black" mask="url(#path-9-outside-4_267_139)"/>
<mask id="path-11-outside-5_267_139" maskUnits="userSpaceOnUse" x="28.7397" y="26.1342" width="30" height="34" fill="black">
<rect fill="white" x="28.7397" y="26.1342" width="30" height="34"/>
<path d="M38.3996 59.1342H29.6779V26.6701H43.3904C51.6275 26.6701 57.7812 30.0618 57.7812 38.7351C57.7812 47.4568 51.7244 50.8486 43.3904 50.8486H38.3996V59.1342ZM43.4873 34.4227H38.3996V43.0959H43.4873C46.879 43.0959 48.5749 41.5454 48.5749 38.7351C48.5749 35.8763 46.879 34.4227 43.4873 34.4227Z"/>
</mask>
<path d="M38.3996 59.1342H29.6779V26.6701H43.3904C51.6275 26.6701 57.7812 30.0618 57.7812 38.7351C57.7812 47.4568 51.7244 50.8486 43.3904 50.8486H38.3996V59.1342ZM43.4873 34.4227H38.3996V43.0959H43.4873C46.879 43.0959 48.5749 41.5454 48.5749 38.7351C48.5749 35.8763 46.879 34.4227 43.4873 34.4227Z" fill="#9B52EF"/>
<path d="M38.3996 59.1342V59.4976H38.763V59.1342H38.3996ZM29.6779 59.1342H29.3145V59.4976H29.6779V59.1342ZM29.6779 26.6701V26.3067H29.3145V26.6701H29.6779ZM38.3996 50.8486V50.4852H38.0362V50.8486H38.3996ZM38.3996 34.4227V34.0593H38.0362V34.4227H38.3996ZM38.3996 43.0959H38.0362V43.4593H38.3996V43.0959ZM38.3996 58.7708H29.6779V59.4976H38.3996V58.7708ZM30.0413 59.1342V26.6701H29.3145V59.1342H30.0413ZM29.6779 27.0335H43.3904V26.3067H29.6779V27.0335ZM43.3904 27.0335C47.4677 27.0335 50.9757 27.8743 53.4562 29.7405C55.9194 31.5937 57.4178 34.4944 57.4178 38.7351H58.1446C58.1446 34.3025 56.5662 31.1707 53.8932 29.1597C51.2376 27.1618 47.5502 26.3067 43.3904 26.3067V27.0335ZM57.4178 38.7351C57.4178 43.0027 55.9416 45.9149 53.4915 47.7729C51.0239 49.644 47.517 50.4852 43.3904 50.4852V51.212C47.5978 51.212 51.2863 50.3572 53.9306 48.352C56.5923 46.3337 58.1446 43.1892 58.1446 38.7351H57.4178ZM43.3904 50.4852H38.3996V51.212H43.3904V50.4852ZM38.0362 50.8486V59.1342H38.763V50.8486H38.0362ZM43.4873 34.0593H38.3996V34.7861H43.4873V34.0593ZM38.0362 34.4227V43.0959H38.763V34.4227H38.0362ZM38.3996 43.4593H43.4873V42.7325H38.3996V43.4593ZM43.4873 43.4593C45.2319 43.4593 46.6032 43.0613 47.5418 42.2434C48.489 41.4179 48.9383 40.2153 48.9383 38.7351H48.2115C48.2115 40.0652 47.8129 41.043 47.0643 41.6954C46.307 42.3554 45.1344 42.7325 43.4873 42.7325V43.4593ZM48.9383 38.7351C48.9383 37.232 48.4896 36.0385 47.5384 35.2299C46.5982 34.4308 45.2267 34.0593 43.4873 34.0593V34.7861C45.1396 34.7861 46.3119 35.1413 47.0677 35.7837C47.8123 36.4167 48.2115 37.3794 48.2115 38.7351H48.9383Z" fill="black" mask="url(#path-11-outside-5_267_139)"/>
<mask id="path-13-outside-6_267_139" maskUnits="userSpaceOnUse" x="31.1626" y="22.9847" width="30" height="34" fill="black">
<rect fill="white" x="31.1626" y="22.9847" width="30" height="34"/>
<path d="M40.8225 55.9847H32.1008V23.5206H45.8132C54.0504 23.5206 60.204 26.9124 60.204 35.5856C60.204 44.3073 54.1473 47.6991 45.8132 47.6991H40.8225V55.9847ZM45.9101 31.2732H40.8225V39.9465H45.9101C49.3019 39.9465 50.9978 38.3959 50.9978 35.5856C50.9978 32.7268 49.3019 31.2732 45.9101 31.2732Z"/>
</mask>
<path d="M40.8225 55.9847H32.1008V23.5206H45.8132C54.0504 23.5206 60.204 26.9124 60.204 35.5856C60.204 44.3073 54.1473 47.6991 45.8132 47.6991H40.8225V55.9847ZM45.9101 31.2732H40.8225V39.9465H45.9101C49.3019 39.9465 50.9978 38.3959 50.9978 35.5856C50.9978 32.7268 49.3019 31.2732 45.9101 31.2732Z" fill="#F2F0FF"/>
<path d="M40.8225 55.9847V56.3481H41.1859V55.9847H40.8225ZM32.1008 55.9847H31.7374V56.3481H32.1008V55.9847ZM32.1008 23.5206V23.1572H31.7374V23.5206H32.1008ZM40.8225 47.6991V47.3357H40.4591V47.6991H40.8225ZM40.8225 31.2732V30.9098H40.4591V31.2732H40.8225ZM40.8225 39.9465H40.4591V40.3099H40.8225V39.9465ZM40.8225 55.6213H32.1008V56.3481H40.8225V55.6213ZM32.4642 55.9847V23.5206H31.7374V55.9847H32.4642ZM32.1008 23.884H45.8132V23.1572H32.1008V23.884ZM45.8132 23.884C49.8905 23.884 53.3986 24.7248 55.8791 26.591C58.3422 28.4442 59.8406 31.3449 59.8406 35.5856H60.5674C60.5674 31.1531 58.989 28.0213 56.316 26.0102C53.6604 24.0123 49.9731 23.1572 45.8132 23.1572V23.884ZM59.8406 35.5856C59.8406 39.8532 58.3645 42.7655 55.9143 44.6234C53.4468 46.4946 49.9398 47.3357 45.8132 47.3357V48.0625C50.0207 48.0625 53.7092 47.2077 56.3535 45.2026C59.0152 43.1842 60.5674 40.0397 60.5674 35.5856H59.8406ZM45.8132 47.3357H40.8225V48.0625H45.8132V47.3357ZM40.4591 47.6991V55.9847H41.1859V47.6991H40.4591ZM45.9101 30.9098H40.8225V31.6366H45.9101V30.9098ZM40.4591 31.2732V39.9465H41.1859V31.2732H40.4591ZM40.8225 40.3099H45.9101V39.5831H40.8225V40.3099ZM45.9101 40.3099C47.6547 40.3099 49.026 39.9118 49.9646 39.0939C50.9119 38.2684 51.3612 37.0658 51.3612 35.5856H50.6344C50.6344 36.9157 50.2357 37.8936 49.4871 38.5459C48.7298 39.2059 47.5573 39.5831 45.9101 39.5831V40.3099ZM51.3612 35.5856C51.3612 34.0825 50.9125 32.8891 49.9612 32.0805C49.0211 31.2814 47.6496 30.9098 45.9101 30.9098V31.6366C47.5624 31.6366 48.7347 31.9919 49.4905 32.6343C50.2351 33.2672 50.6344 34.2299 50.6344 35.5856H51.3612Z" fill="black" mask="url(#path-13-outside-6_267_139)"/>
</svg>
