<svg width="461" height="193" viewBox="0 0 461 193" fill="none" xmlns="http://www.w3.org/2000/svg">
<path d="M460.039 134.497V192.462H317.996H283.172H177.91H140.712H1.04377V84.5198V73.5163L6.38164 70.2819L6.38284 70.2812L24.4856 59.3949H147.263H147.68V58.9776V25.5422V14.5387L153.018 11.3043L153.019 11.3035L171.122 0.417447L288.28 0.563121L307.575 11.456L307.575 11.4562L313.061 14.5475V25.6881V109.101V109.519L313.479 109.519L435.258 109.373L454.553 120.265L454.553 120.265L460.039 123.357V134.497Z" fill="#F2F0FF" stroke="#35209D" stroke-width="0.834606"/>
<path d="M7 76.5818H156V185.582H7V76.5818Z" fill="#7A66DD"/>
<path d="M7 76.5818H177.398L156.933 65.6351H26.2115L7 76.5818Z" fill="#4930C2"/>
<path d="M96.6063 139.606H67.0504V133.33L81.5729 120.048C84.638 117.129 86.5354 114.94 86.5354 112.239C86.5354 109.758 84.8569 108.007 81.7918 108.007C76.9753 108.007 73.4724 111.072 72.8886 118.297L66.3936 113.115C67.0504 105.161 73.6913 100.052 82.5946 100.052C90.8411 100.052 95.2927 104.796 95.2927 111.802C95.2927 117.932 90.4762 122.675 85.5137 126.251L80.6972 130.046L75.6617 133.257L82.9595 132.308H96.5333V139.606H96.6063Z" fill="#F2F0FF"/>
<path d="M305 127.2H453.874V185.582H305V127.2Z" fill="#4930C2"/>
<path d="M275.8 127.2H453.874L432.488 116.253H295.877L275.8 127.2Z" fill="#25176A"/>
<path d="M380.057 173.686C372.322 173.686 367.14 169.673 365.681 164.564L371.154 159.748C372.176 164.199 374.949 166.754 379.838 166.754C383.341 166.754 385.239 165.294 385.239 162.74C385.239 159.894 382.83 159.018 379.255 159.018H374V153.107H379.619C382.684 153.107 384.655 152.012 384.655 149.458C384.655 147.05 382.903 145.444 379.838 145.444C375.825 145.444 372.759 147.56 371.884 151.647L366.41 146.904C367.943 142.233 372.832 138.438 380.057 138.438C387.939 138.438 392.026 142.963 392.026 147.852C392.026 153.034 387.866 155.515 383.195 155.807C389.909 156.026 393.193 159.602 393.193 164.418C393.193 170.184 387.574 173.686 380.057 173.686Z" fill="#F2F0FF"/>
<path d="M156 18H305V186H156V18Z" fill="#A393F2"/>
<path d="M156.468 18.2445H305.343L287.463 7.29785H173.253L156.468 18.2445Z" fill="#8370E0"/>
<path d="M238.714 106.766H228.716V71.6638H219.886V64.0011C224.045 64.0011 227.184 62.9065 229.519 59.7684H238.714V106.766Z" fill="#F2F0FF"/>
</svg>
