<svg xmlns="http://www.w3.org/2000/svg" width="108" height="116" viewBox="0 0 108 116" fill="none">
  <path fill-rule="evenodd" clip-rule="evenodd" d="M103.937 57.7235C106.098 59.0586 107.504 61.1585 107.9 63.734H107.902C108.476 67.4583 106.548 70.8932 102.99 72.486C102.56 72.6777 102.131 72.8722 101.701 73.0667L101.699 73.0676C99.0679 74.2536 96.345 75.4798 93.4671 76.4882C84.71 79.5536 75.402 81.3069 65.7383 81.7165C69.1785 85.8677 72.6848 89.8097 76.6186 93.1701C76.9887 93.4881 77.4163 93.8205 77.8696 94.17L77.9021 94.1951C78.5081 94.6645 79.193 95.1948 79.8695 95.7943C81.5681 97.2955 83.086 99.9483 82.2682 102.888C81.614 105.243 79.5481 107.274 77.1293 107.944C75.5598 108.377 73.9875 108.775 72.4696 109.156C70.7853 109.58 69.1957 109.981 67.6119 110.428C64.7856 111.227 61.902 112.078 59.1159 112.903C56.8894 113.562 54.5882 114.241 52.31 114.897C50.8065 115.33 49.3144 115.59 48.0491 115.791C47.1797 115.928 46.3046 115.997 45.4495 115.997C40.9533 115.997 36.79 114.103 33.41 110.52C29.6369 106.52 25.9355 102.386 22.4091 98.2352C17.1124 92.0042 11.9707 85.7932 7.12443 79.7742C2.16056 73.6148 -0.229556 66.7105 0.0172032 59.2562C0.195099 53.8532 1.72156 48.9915 3.4087 44.0726C4.09733 42.0586 4.81178 40.0303 5.50328 38.0679L5.53293 37.9837C7.21088 33.217 8.94614 28.2874 10.3581 23.4344C10.5446 22.7869 10.7656 22.171 11.0123 21.5808C10.2147 21.0737 9.50307 20.3948 8.91774 19.564L8.89886 19.5371C8.22918 18.5839 7.47088 17.5047 6.78298 16.341C5.48607 14.1494 5.44303 11.5596 6.66534 9.41672C7.89627 7.26236 10.186 5.96459 12.8056 5.93594C13.2073 3.15992 15.4741 0.836539 17.867 0.209141C18.3864 0.0744933 18.9258 0.0057373 19.4738 0.0057373C21.7234 0.0057373 24.3516 1.20037 25.6141 3.49511C26.9713 2.51533 28.624 2.11998 29.9841 2.11998C30.4001 2.11998 30.8133 2.15723 31.2121 2.22885C33.7026 2.68722 35.0168 4.48061 35.4644 5.10228L37.5762 7.44285L36.5174 10.6114C36.5145 10.6214 36.511 10.6314 36.5074 10.6414C36.5038 10.6515 36.5002 10.6615 36.4973 10.6715C41.2632 10.173 45.9947 9.92093 50.6601 9.92093C54.0344 9.92093 57.4403 10.0527 60.7859 10.3105C70.8026 11.0841 80.3774 12.9806 89.2463 15.9485C94.0208 17.5443 97.7165 19.8447 100.546 22.9788C103.874 26.6659 104.267 30.8887 104.238 34.1546C104.208 37.8645 104.144 41.621 104.082 45.2635L104.078 45.5165C104.069 46.0479 104.06 46.5793 104.052 47.1107C104.017 49.2322 103.982 51.3536 103.954 53.475C103.937 54.8816 103.934 56.2797 103.937 57.7235Z" fill="#FBFAFF"/>
  <path d="M98.21 61.8203C98.692 61.9119 99.3433 61.9692 99.9487 62.1612C101.148 62.5422 102.026 63.2928 102.227 64.6049C102.428 65.9026 101.699 66.785 100.64 67.2577C97.6447 68.5985 94.6578 69.9994 91.5647 71.0823C79.6514 75.2535 67.3508 76.6515 54.7775 75.8809C54.4734 75.8637 54.1692 75.8809 53.6901 75.8809C55.492 78.1469 57.1791 80.307 58.9036 82.4356C63.2333 87.7728 67.6319 93.047 72.8827 97.5304C73.9157 98.4128 75.0405 99.1863 76.0562 100.086C76.4091 100.398 76.828 101.014 76.7333 101.358C76.6099 101.796 76.0533 102.3 75.5885 102.429C72.4208 103.306 69.2072 104.028 66.0452 104.922C60.9235 106.368 55.8334 107.927 50.7175 109.399C49.5526 109.735 48.3503 109.949 47.151 110.139C43.309 110.743 40.1298 109.299 37.5819 106.6C33.8805 102.673 30.2738 98.6477 26.779 94.5367C21.6401 88.4861 16.5701 82.3754 11.5919 76.1931C7.68105 71.3372 5.54056 65.7709 5.75002 59.4539C5.90496 54.7584 7.32812 50.3323 8.83163 45.9319C11.2103 38.9789 13.8098 32.089 15.8614 25.0387C17.0034 21.1138 19.4021 19.3319 23.0834 18.567C35.3869 16.0087 47.7994 15.0576 60.3411 16.0288C69.5773 16.7421 78.6299 18.4467 87.4214 21.3889C90.7699 22.509 93.8486 24.1248 96.2818 26.8234C98.1927 28.9406 98.5227 31.4788 98.4997 34.1116C98.4424 40.546 98.296 46.9776 98.2128 53.4091C98.1755 56.188 98.2071 58.9669 98.2071 61.8289L98.21 61.8203ZM29.9754 91.7406C31.4359 93.4194 32.8189 95.0094 34.2019 96.6022C35.5677 98.175 36.9363 99.7449 38.3537 101.375C40.0954 98.4328 42.5027 96.6824 45.8225 97.1064C47.6101 97.3356 48.709 96.9231 50.0461 95.7771C52.8322 93.3879 56.063 93.2446 59.4143 94.9234C60.3612 93.1673 61.9422 92.3021 63.8187 91.8695C46.9272 72.2339 32.4086 51.0084 17.2559 30.2383C17.1727 30.4446 17.0579 30.6996 16.9632 30.9603C15.5314 34.8794 14.0968 38.7985 12.6707 42.7233C11.0984 47.0492 9.38253 51.3321 8.65087 55.9072C8.43854 57.2222 8.37541 58.5601 8.2549 59.7748C10.6307 56.3169 12.9864 52.8734 15.3621 49.4442C15.6003 49.0975 15.8987 48.6821 16.2573 48.5589C16.6677 48.4214 17.385 48.4014 17.5944 48.6506C17.8957 49.0059 17.9588 49.6504 17.9359 50.1632C17.9215 50.4555 17.5428 50.7362 17.3132 51.0084C14.2374 54.6668 11.7985 58.7148 9.63216 62.9719C8.82589 64.5533 8.97223 65.7995 9.69816 67.2463C11.3222 70.4835 13.7123 73.1421 16.0708 75.8264C16.2258 76.0012 16.7308 76.0442 16.9747 75.9324C18.2085 75.3709 19.4337 74.7808 20.6187 74.119C23.9126 72.2769 26.8967 70.0108 29.5938 67.3694C30.1275 66.8452 30.6841 66.3925 31.4789 66.8423C32.2852 67.3007 32.3713 68.269 31.5191 68.9938C29.2897 70.8875 27.0803 72.827 24.6959 74.5143C22.7018 75.9238 20.4752 77.0039 18.2659 78.2787C21.62 82.1061 24.98 85.9393 28.1305 89.5347C33.2091 87.0279 38.1357 84.5928 43.0651 82.1634C43.352 82.0231 43.7078 81.7767 43.9517 81.8483C44.4424 81.9916 45.0736 82.2207 45.2773 82.6075C45.4409 82.9169 45.1425 83.5643 44.89 83.9626C44.7293 84.2175 44.2817 84.3006 43.9546 84.4381C39.1399 86.4693 34.5318 88.8901 29.9869 91.7377L29.9754 91.7406ZM52.9096 71.3688C52.9383 70.9935 52.9641 70.7843 52.9728 70.5752C53.1191 66.7535 53.2626 62.9318 53.4089 59.113C53.4491 58.0387 53.9024 57.4657 54.7144 57.5402C55.7215 57.6347 55.8392 58.3739 55.8105 59.1846C55.7617 60.5769 55.6814 61.9692 55.6699 63.3644C55.6469 66.0659 55.6641 68.7675 55.6641 71.5951H68.7911C68.9059 68.8133 69.0121 66.212 69.124 63.6108C69.2187 61.4679 69.3191 59.3279 69.4281 57.185C69.4683 56.3799 69.9159 55.8958 70.7193 55.913C71.5112 55.9302 71.801 56.5232 71.8555 57.2251C71.8842 57.6147 71.8441 58.01 71.8297 58.4025C71.6949 62.3674 71.56 66.3324 71.428 70.2973C71.4165 70.6325 71.428 70.9705 71.428 71.3659C75.3618 70.9161 79.1034 70.3345 82.6756 68.9938C82.9855 68.8763 83.3184 68.3549 83.3384 68.0026C83.5049 65.3268 83.5995 62.6482 83.7143 59.9724C83.8578 56.5805 84.0098 53.1885 84.139 49.7966C84.1705 48.9944 84.4919 48.4386 85.3326 48.4759C86.113 48.5074 86.5664 48.9887 86.5492 49.8166C86.5434 50.0658 86.5377 50.318 86.5291 50.5672C86.3024 55.8872 86.0729 61.2072 85.8462 66.5272C85.8318 66.8996 85.8462 67.272 85.8462 67.7877C89.2377 66.341 92.3078 64.6908 94.9418 62.3388C95.2833 62.0323 95.4698 61.3963 95.487 60.9035C95.728 53.3318 95.9317 45.76 96.1355 38.1854C96.1412 37.9361 96.0838 37.684 96.0494 37.3488C95.2861 37.9906 94.6578 38.5779 93.9691 39.0792C93.2776 39.5806 92.5402 40.0303 91.7914 40.4457C84.8448 44.3018 77.2383 45.6483 69.4425 46.2356C63.0325 46.7169 56.6282 46.5106 50.2555 45.7571C47.2084 45.3962 44.164 44.8776 41.18 44.1643C36.856 43.1301 32.859 41.3682 29.634 37.6955C29.634 39.6837 29.6225 41.3797 29.6483 43.0757C29.6512 43.2991 29.8233 43.5369 29.9668 43.7346C36.5117 52.7187 43.0622 61.7028 49.6272 70.6726C49.8137 70.9276 50.1609 71.1768 50.465 71.2198C51.2368 71.3315 52.0259 71.3286 52.9125 71.3773L52.9096 71.3688ZM26.9139 39.784C27.0114 39.7438 27.109 39.7009 27.2066 39.6608C27.2066 38.2771 27.1606 36.8933 27.2209 35.5125C27.2754 34.2462 27.4533 32.9857 27.5595 31.7194C27.8493 28.316 29.8606 26.1244 32.684 24.543C36.9765 22.1394 41.6993 21.4118 46.5197 21.1597C53.0703 20.8188 59.618 20.8503 66.1428 21.5923C70.8656 22.1309 75.5942 22.6952 80.099 24.3568C82.4576 25.2277 84.7587 26.2075 86.6152 27.9694C88.9565 30.1954 89.0168 32.9599 86.5377 35.0169C85.2207 36.1112 83.6368 37.0624 82.0128 37.5752C77.3014 39.062 72.4524 40.0275 67.5201 40.4285C60.3784 41.0101 53.297 40.1678 46.2271 39.3256C43.9919 39.0592 41.7998 38.4318 39.9548 37.0137C37.5819 35.1888 37.1802 32.1664 39.0137 29.8029C40.6865 27.6428 43.1196 26.9094 45.6704 26.5456C46.0406 26.494 46.7234 27.0555 46.864 27.468C46.9759 27.8032 46.5742 28.4192 46.2443 28.7601C46.009 29.0036 45.4954 28.9549 45.1425 29.1182C43.8628 29.7055 42.4195 30.1123 41.3694 30.9832C39.708 32.3583 39.9491 34.1803 41.8112 35.3091C42.7696 35.8906 43.8771 36.3891 44.9732 36.5553C48.2212 37.0452 51.4951 37.3488 54.7575 37.7327C62.0053 38.5865 69.1871 38.2226 76.2943 36.5381C78.9312 35.9136 81.6226 35.4466 83.984 33.9741C86.8103 32.2065 86.8648 30.4704 84.0586 28.6426C81.5738 27.024 78.8136 26.0413 75.9242 25.4426C65.3681 23.2539 54.7144 22.7726 43.9919 23.7466C40.4483 24.0675 36.9851 24.8037 33.8604 26.6315C32.0413 27.6972 30.6124 29.1296 30.2164 31.2926C29.7315 33.9569 31.017 35.9365 32.9337 37.5551C35.6107 39.8155 38.7956 41.0875 42.1498 41.9469C47.9056 43.4223 53.7991 43.8033 59.7041 43.9809C67.2446 44.2073 74.7277 43.6715 82.0444 41.7091C86.1016 40.6205 90.0468 39.1995 93.3695 36.5238C96.8729 33.699 96.9274 30.479 93.5847 27.4881C92.896 26.8721 92.15 26.2734 91.3351 25.8551C89.5591 24.9441 87.7801 23.9787 85.8978 23.3513C78.3717 20.8417 70.6103 19.3777 62.7226 18.6272C52.1263 17.6187 41.5587 17.9367 31.0485 19.6757C28.1247 20.1598 25.1894 20.6669 22.3316 21.4318C19.3275 22.234 18.1941 24.3396 18.8684 27.3305C19.0291 28.0467 19.3275 28.7801 19.7407 29.3875C22.1021 32.874 24.518 36.329 26.9168 39.7925L26.9139 39.784ZM40.061 103.174C42.6749 106.151 45.8426 107.099 49.5956 106.174C55.1792 104.796 60.7657 103.426 66.3522 102.048C68.4468 101.533 70.5414 101.008 72.7737 100.455C71.758 99.5616 70.8599 98.8024 69.9991 98.0088C69.1068 97.1838 68.2374 96.3329 67.3737 95.4763C65.2246 93.3506 62.1918 93.9952 61.1101 96.8142C60.5821 98.1922 60.0025 98.3555 58.7888 97.476C55.7904 95.2987 51.9542 96.0722 50.0748 99.2293C49.3775 100.401 49.0103 100.513 47.722 99.9426C45.3491 98.8941 42.6548 99.5559 41.0796 101.598C40.7123 102.077 40.4225 102.613 40.0638 103.174H40.061Z" fill="#35209D"/>
  <path d="M22.501 13.4533C22.1911 13.7283 21.8525 14.2669 21.4594 14.3127C21.052 14.3586 20.2916 14.0148 20.1969 13.6939C19.5341 11.4422 18.9631 9.15888 18.4839 6.86128C18.418 6.54042 18.9545 5.84713 19.3218 5.74973C19.6948 5.65232 20.5154 5.99037 20.6072 6.29691C21.293 8.57732 21.8439 10.8978 22.501 13.4561V13.4533Z" fill="#35209D"/>
  <path d="M31.0772 8.79502C30.512 10.491 30.0672 12.0265 29.4532 13.4905C29.3241 13.7999 28.5236 14.0463 28.1161 13.9546C27.7976 13.883 27.3357 13.1725 27.4132 12.8602C27.7862 11.3161 28.2567 9.78338 28.8421 8.30513C28.9597 8.00719 29.7545 7.78373 30.1763 7.86108C30.5292 7.92697 30.796 8.47988 31.0801 8.79502H31.0772Z" fill="#35209D"/>
  <path d="M12.8888 11.6599C13.0438 11.7716 13.4455 11.9463 13.6894 12.2529C14.3579 13.0865 14.9748 13.9603 15.5802 14.8398C16.025 15.4844 16.0106 16.1405 15.3564 16.6303C14.6793 17.1374 14.0624 16.914 13.6119 16.2722C12.9577 15.3412 12.3006 14.4044 11.721 13.4275C11.2074 12.5623 11.7038 11.6656 12.8888 11.6627V11.6599Z" fill="#35209D"/>
  <path d="M31.0113 76.2132C30.5952 76.5827 30.3169 77.0153 29.9554 77.1013C29.4647 77.2216 28.6757 77.276 28.4404 76.9981C28.1477 76.6515 28.0358 75.7233 28.2912 75.4225C29.4246 74.0961 30.6871 72.8728 31.9782 71.6953C32.2221 71.4719 32.9739 71.4547 33.2178 71.6638C33.5592 71.956 33.8232 72.5548 33.8002 73.0074C33.7572 73.9242 33.4531 74.8237 33.3411 75.7405C33.2092 76.8349 33.5535 77.806 34.42 78.5108C35.2435 79.1811 36.1043 78.8316 36.2334 77.7888C36.3281 77.0325 36.7441 76.5627 37.4586 76.5426C38.2706 76.5197 38.6379 77.1185 38.7469 77.8605C39.0453 79.8687 36.7183 81.8283 34.618 81.3069C32.7501 80.8428 31.7889 79.4848 31.2982 77.7287C31.1748 77.2846 31.1232 76.8205 31.0084 76.2103L31.0113 76.2132Z" fill="#35209D"/>
  <path d="M21.8669 67.0629C20.1166 67.0572 18.8828 66.1605 18.4926 64.6908C18.329 64.072 18.1081 63.7597 17.4568 63.5592C15.8184 63.055 14.9117 61.7544 14.9605 60.2217C15.0093 58.6546 16.1426 57.1477 17.6146 56.6607C18.4237 56.3943 19.1095 56.5805 19.3591 57.3855C19.6059 58.1876 19.1755 58.7176 18.3262 58.9382C17.3822 59.1846 16.969 59.8894 17.2846 60.5712C17.5888 61.233 18.3491 61.3074 19.2243 61.0066C19.7149 60.8376 20.4552 60.829 20.8511 61.0955C21.4566 61.5023 21.3389 62.2156 20.9085 62.8058C20.4351 63.4561 20.3662 64.1293 21.1409 64.5247C21.8496 64.8856 22.369 64.4358 22.6703 63.7855C23.0347 63.0034 23.5454 62.5107 24.4291 62.9719C25.2813 63.416 25.2383 64.1723 24.8767 64.9143C24.2082 66.2837 23.0921 66.9999 21.864 67.0629H21.8669Z" fill="#35209D"/>
  <path d="M44.3851 87.7413C44.5945 87.9218 45.0335 88.2054 45.352 88.5864C46.4165 89.8641 47.4093 91.202 48.491 92.4682C48.9903 93.0527 49.1079 93.6056 48.6373 94.1843C48.1467 94.7888 47.5155 94.7658 46.933 94.296C45.2688 92.9553 43.9374 91.3366 43.0508 89.3886C42.6635 88.5377 43.1914 87.7556 44.3851 87.7441V87.7413Z" fill="#35209D"/>
  <path d="M64.3581 35.2203C62.3267 34.8765 59.8448 34.5585 57.4173 34.0027C56.3442 33.7563 55.2338 33.2006 54.4075 32.4786C53.7504 31.9057 53.3831 30.903 53.1306 30.0206C53.0445 29.7227 53.627 29.0523 54.0431 28.8632C54.2583 28.7658 54.9957 29.2729 55.1276 29.6396C55.4892 30.6451 56.2438 31.1379 57.1419 31.4014C61.0011 32.5359 64.9349 32.8511 68.9146 32.2151C69.7811 32.0775 70.6849 31.8971 70.6304 30.5993C70.6189 30.3042 71.3305 29.7456 71.7179 29.737C72.1052 29.7284 72.8398 30.2612 72.8369 30.5506C72.8312 31.3929 72.6963 32.3211 72.3032 33.0516C71.7523 34.0801 70.6419 34.484 69.5114 34.6387C67.9562 34.8507 66.3896 34.994 64.3524 35.2203H64.3581Z" fill="#35209D"/>
  <path d="M53.5955 103.587C53.013 103.303 52.597 103.097 52.1809 102.893C52.4162 102.449 52.5453 101.753 52.904 101.604C54.6686 100.871 56.4791 100.229 58.3126 99.6877C58.6741 99.5817 59.2078 100.06 59.6611 100.272C59.4173 100.779 59.2967 101.581 58.9094 101.742C57.1792 102.458 55.3716 102.991 53.5983 103.587H53.5955Z" fill="#35209D"/>
  <path d="M44.8268 101.192C45.2142 101.825 45.6417 102.217 45.5843 102.515C45.524 102.827 45.0219 103.2 44.6661 103.254C44.4653 103.286 43.9603 102.73 43.9718 102.455C43.9861 102.117 44.3935 101.793 44.8268 101.189V101.192Z" fill="#35209D"/>
  <path d="M65.5747 98.0833C65.1988 97.4674 64.8201 97.1179 64.8316 96.7827C64.8402 96.5077 65.3825 95.9863 65.5661 96.035C65.9219 96.1295 66.3924 96.5163 66.4384 96.8371C66.4814 97.1236 66.0137 97.4846 65.5747 98.0833Z" fill="#35209D"/>
</svg>
