<svg width="415" height="432" viewBox="0 0 415 432" fill="none" xmlns="http://www.w3.org/2000/svg">
<mask id="path-1-inside-1_267_150" fill="white">
<path fill-rule="evenodd" clip-rule="evenodd" d="M408.425 230.763C408.501 230.306 408.577 229.812 408.653 229.355C409.262 225.854 408.501 222.316 406.563 219.424L404.625 217.141C402.193 214.859 399.001 213.603 395.618 213.603C395.504 213.603 395.352 213.603 395.238 213.603C361.491 214.554 327.516 217.788 294.224 223.153C293.958 222.392 293.692 221.669 293.426 220.946L292.97 219.615C292.666 218.701 292.324 217.826 292.02 216.913C290.5 212.576 288.828 207.705 286.32 203.064C282.937 196.786 278.377 191.497 272.714 187.312C267.66 183.545 262.035 181.186 257.133 179.245L255.993 178.789C255.917 178.751 255.879 178.751 255.803 178.713C251.66 176.506 247.252 174.489 242.957 173.044C242.805 172.625 242.615 172.244 242.425 171.826C242.197 171.407 241.969 170.989 241.741 170.608C245.884 167.108 249.608 162.885 252.8 158.091C260.439 146.638 264.088 132.636 263.631 116.542C263.403 108.514 262.301 100.904 261.237 94.5119C260.363 89.2993 259.185 82.4886 257.665 75.678C255.917 67.84 253.827 61.3718 251.09 55.3222C249.57 51.9359 247.822 48.3213 245.276 44.8209C245.086 44.5545 244.896 44.2882 244.668 44.0218C244.478 43.4892 244.25 42.9945 243.946 42.4999L243.908 42.4619C241.969 38.9234 239.423 35.7273 236.231 32.7976L216.317 21.0026L207.5 16.9695L207.31 17.4642C206.018 17.0076 204.726 16.589 203.434 16.2086L190.094 13.0886C186.826 12.4798 183.52 12.0993 180.441 12.0993C177.515 12.0993 174.665 12.3657 171.815 12.8984L164.518 8.33257C160.3 4.71798 155.017 2.39704 149.583 1.86436C147.036 0.837058 144.3 0.304382 141.526 0.304382C139.702 0.304382 137.915 0.532672 136.167 0.989251C134.761 0.684865 133.279 0.57072 131.759 0.57072C129.555 0.57072 127.312 0.875106 125.032 1.48388C122.676 2.1307 118.61 3.53849 114.885 6.43015C113.441 7.11502 112.149 7.99013 111.047 9.01744C108.463 10.1208 106.22 11.9091 104.51 14.1159C103.18 14.953 101.964 16.0183 100.938 17.2359C99.4557 18.948 98.3916 20.9646 97.7835 23.1333C96.6054 24.8075 95.7693 26.6718 95.3133 28.6884C93.8311 31.1615 93.0711 34.0151 93.1471 36.9068C92.045 38.4668 91.2089 40.179 90.7148 42.0053C90.2208 43.7555 90.0688 45.5057 90.1828 47.294C89.9167 47.7125 89.6887 48.093 89.4607 48.5115C88.3206 50.6042 87.5985 52.849 87.2565 55.17C86.2304 57.6812 85.8504 60.3445 86.1164 62.9699C85.7364 64.4918 85.5463 66.0898 85.6223 67.6879C84.9383 70.3512 84.9763 72.8244 85.0143 74.4604V74.8029V75.4877C85.0143 76.6672 85.0523 77.9989 85.2423 79.4448C85.2423 79.8633 85.2043 80.2438 85.2043 80.6243C84.2922 84.0867 84.1022 87.511 84.7102 90.8212C84.4822 92.1148 84.4442 93.4085 84.5202 94.7021C83.7222 97.5557 83.6842 100.6 84.4062 103.453C84.2542 104.785 84.2542 106.117 84.4442 107.41C83.4941 110.949 83.6841 114.716 84.9003 118.102C84.8623 119.243 84.9763 120.347 85.1663 121.45C85.0903 121.793 85.0523 122.135 85.0143 122.477C84.5962 125.635 85.1663 128.185 85.5463 129.707C85.5463 129.745 85.5843 129.821 85.5843 129.859C85.4703 131.837 85.6983 133.549 86.1924 135.033C85.8884 136.099 85.6603 137.202 85.5843 138.343C85.4323 140.208 85.6223 142.034 86.1164 143.822C86.0404 145.268 86.1164 146.752 86.4204 148.274C86.0024 149.758 85.7743 151.318 85.7743 152.916C85.7743 154.666 86.0784 156.34 86.6104 157.938C86.3444 160.83 86.7624 163.76 87.7505 166.461C87.6745 169.353 88.3586 172.283 89.6127 174.87C89.6127 174.984 89.6127 175.136 89.6127 175.25C80.6819 178.675 70.8009 183.012 62.0221 189.366C55.7515 193.932 50.2789 199.335 45.7565 205.423C41.5761 211.092 38.0798 217.522 34.4314 226.349C28.8069 239.932 24.5504 254.2 20.6741 267.632L19.572 271.474C16.8357 281.024 14.5175 289.699 12.5413 297.918C12.3133 298.831 12.0852 299.782 11.8572 300.695C10.0711 308.039 8.24688 315.572 7.22078 323.448C4.67453 328.433 4.86455 334.406 7.98085 339.314C9.38699 341.521 11.2492 343.386 13.4914 344.717C13.4154 347.495 13.3394 350.424 13.3394 353.506C13.3014 361.687 13.4154 370.362 15.5816 379.151C17.6338 387.445 21.3581 394.941 26.6787 401.523C33.1773 409.552 40.74 414.308 49.1768 415.715C51.6471 416.134 54.2313 416.324 56.8156 416.324C57.8037 416.324 58.8298 416.286 59.8559 416.248L69.6988 423.553C70.3449 423.629 70.9909 423.705 71.637 423.705C72.5491 423.705 73.4232 423.629 74.2972 423.439C81.5939 423.249 89.0047 423.135 96.3774 423.135C100.026 423.135 103.674 423.173 107.36 423.211C109.641 423.249 111.921 423.287 114.201 423.325C116.633 423.363 119.028 423.439 121.46 423.515L122.296 423.553C125.336 423.629 130.429 423.743 136.889 423.858C160.262 424.314 203.776 425.151 217.153 426.521C231.366 427.967 241.969 428.69 249.646 428.69C252.952 428.69 256.259 428.614 259.337 428.119C260.097 428.271 260.895 428.347 261.655 428.347C267.242 428.347 272.182 424.771 274.006 419.52C274.12 419.14 274.234 418.797 274.349 418.417C275.679 417.998 276.895 417.58 277.959 417.161L278.453 416.971C281.455 415.753 284.115 414.155 286.51 412.443L300.305 399.735C302.775 396.159 304.333 392.278 304.941 388.092C305.398 384.858 305.588 381.7 305.74 378.961L305.93 375.574C306.082 372.569 306.158 369.677 306.12 366.899L341.197 362.904C343.743 362.6 346.403 362.334 348.988 362.105C355.106 361.497 361.415 360.85 367.724 359.784C374.146 358.681 379.353 356.056 383.153 352.061C386.421 348.598 388.74 344.337 390.298 338.972C391.248 335.586 391.78 332.275 392.236 329.346C392.35 328.623 392.464 327.9 392.578 327.177C392.958 324.78 393.414 322.421 393.87 319.948C394.212 318.083 394.554 316.181 394.896 314.279C396.34 305.946 397.784 297.233 399.229 288.444C400.673 279.769 402.041 270.98 403.371 262.457C404.701 254.162 406.031 245.64 407.437 237.155L408.425 230.763Z"/>
</mask>
<path fill-rule="evenodd" clip-rule="evenodd" d="M408.425 230.763C408.501 230.306 408.577 229.812 408.653 229.355C409.262 225.854 408.501 222.316 406.563 219.424L404.625 217.141C402.193 214.859 399.001 213.603 395.618 213.603C395.504 213.603 395.352 213.603 395.238 213.603C361.491 214.554 327.516 217.788 294.224 223.153C293.958 222.392 293.692 221.669 293.426 220.946L292.97 219.615C292.666 218.701 292.324 217.826 292.02 216.913C290.5 212.576 288.828 207.705 286.32 203.064C282.937 196.786 278.377 191.497 272.714 187.312C267.66 183.545 262.035 181.186 257.133 179.245L255.993 178.789C255.917 178.751 255.879 178.751 255.803 178.713C251.66 176.506 247.252 174.489 242.957 173.044C242.805 172.625 242.615 172.244 242.425 171.826C242.197 171.407 241.969 170.989 241.741 170.608C245.884 167.108 249.608 162.885 252.8 158.091C260.439 146.638 264.088 132.636 263.631 116.542C263.403 108.514 262.301 100.904 261.237 94.5119C260.363 89.2993 259.185 82.4886 257.665 75.678C255.917 67.84 253.827 61.3718 251.09 55.3222C249.57 51.9359 247.822 48.3213 245.276 44.8209C245.086 44.5545 244.896 44.2882 244.668 44.0218C244.478 43.4892 244.25 42.9945 243.946 42.4999L243.908 42.4619C241.969 38.9234 239.423 35.7273 236.231 32.7976L216.317 21.0026L207.5 16.9695L207.31 17.4642C206.018 17.0076 204.726 16.589 203.434 16.2086L190.094 13.0886C186.826 12.4798 183.52 12.0993 180.441 12.0993C177.515 12.0993 174.665 12.3657 171.815 12.8984L164.518 8.33257C160.3 4.71798 155.017 2.39704 149.583 1.86436C147.036 0.837058 144.3 0.304382 141.526 0.304382C139.702 0.304382 137.915 0.532672 136.167 0.989251C134.761 0.684865 133.279 0.57072 131.759 0.57072C129.555 0.57072 127.312 0.875106 125.032 1.48388C122.676 2.1307 118.61 3.53849 114.885 6.43015C113.441 7.11502 112.149 7.99013 111.047 9.01744C108.463 10.1208 106.22 11.9091 104.51 14.1159C103.18 14.953 101.964 16.0183 100.938 17.2359C99.4557 18.948 98.3916 20.9646 97.7835 23.1333C96.6054 24.8075 95.7693 26.6718 95.3133 28.6884C93.8311 31.1615 93.0711 34.0151 93.1471 36.9068C92.045 38.4668 91.2089 40.179 90.7148 42.0053C90.2208 43.7555 90.0688 45.5057 90.1828 47.294C89.9167 47.7125 89.6887 48.093 89.4607 48.5115C88.3206 50.6042 87.5985 52.849 87.2565 55.17C86.2304 57.6812 85.8504 60.3445 86.1164 62.9699C85.7364 64.4918 85.5463 66.0898 85.6223 67.6879C84.9383 70.3512 84.9763 72.8244 85.0143 74.4604V74.8029V75.4877C85.0143 76.6672 85.0523 77.9989 85.2423 79.4448C85.2423 79.8633 85.2043 80.2438 85.2043 80.6243C84.2922 84.0867 84.1022 87.511 84.7102 90.8212C84.4822 92.1148 84.4442 93.4085 84.5202 94.7021C83.7222 97.5557 83.6842 100.6 84.4062 103.453C84.2542 104.785 84.2542 106.117 84.4442 107.41C83.4941 110.949 83.6841 114.716 84.9003 118.102C84.8623 119.243 84.9763 120.347 85.1663 121.45C85.0903 121.793 85.0523 122.135 85.0143 122.477C84.5962 125.635 85.1663 128.185 85.5463 129.707C85.5463 129.745 85.5843 129.821 85.5843 129.859C85.4703 131.837 85.6983 133.549 86.1924 135.033C85.8884 136.099 85.6603 137.202 85.5843 138.343C85.4323 140.208 85.6223 142.034 86.1164 143.822C86.0404 145.268 86.1164 146.752 86.4204 148.274C86.0024 149.758 85.7743 151.318 85.7743 152.916C85.7743 154.666 86.0784 156.34 86.6104 157.938C86.3444 160.83 86.7624 163.76 87.7505 166.461C87.6745 169.353 88.3586 172.283 89.6127 174.87C89.6127 174.984 89.6127 175.136 89.6127 175.25C80.6819 178.675 70.8009 183.012 62.0221 189.366C55.7515 193.932 50.2789 199.335 45.7565 205.423C41.5761 211.092 38.0798 217.522 34.4314 226.349C28.8069 239.932 24.5504 254.2 20.6741 267.632L19.572 271.474C16.8357 281.024 14.5175 289.699 12.5413 297.918C12.3133 298.831 12.0852 299.782 11.8572 300.695C10.0711 308.039 8.24688 315.572 7.22078 323.448C4.67453 328.433 4.86455 334.406 7.98085 339.314C9.38699 341.521 11.2492 343.386 13.4914 344.717C13.4154 347.495 13.3394 350.424 13.3394 353.506C13.3014 361.687 13.4154 370.362 15.5816 379.151C17.6338 387.445 21.3581 394.941 26.6787 401.523C33.1773 409.552 40.74 414.308 49.1768 415.715C51.6471 416.134 54.2313 416.324 56.8156 416.324C57.8037 416.324 58.8298 416.286 59.8559 416.248L69.6988 423.553C70.3449 423.629 70.9909 423.705 71.637 423.705C72.5491 423.705 73.4232 423.629 74.2972 423.439C81.5939 423.249 89.0047 423.135 96.3774 423.135C100.026 423.135 103.674 423.173 107.36 423.211C109.641 423.249 111.921 423.287 114.201 423.325C116.633 423.363 119.028 423.439 121.46 423.515L122.296 423.553C125.336 423.629 130.429 423.743 136.889 423.858C160.262 424.314 203.776 425.151 217.153 426.521C231.366 427.967 241.969 428.69 249.646 428.69C252.952 428.69 256.259 428.614 259.337 428.119C260.097 428.271 260.895 428.347 261.655 428.347C267.242 428.347 272.182 424.771 274.006 419.52C274.12 419.14 274.234 418.797 274.349 418.417C275.679 417.998 276.895 417.58 277.959 417.161L278.453 416.971C281.455 415.753 284.115 414.155 286.51 412.443L300.305 399.735C302.775 396.159 304.333 392.278 304.941 388.092C305.398 384.858 305.588 381.7 305.74 378.961L305.93 375.574C306.082 372.569 306.158 369.677 306.12 366.899L341.197 362.904C343.743 362.6 346.403 362.334 348.988 362.105C355.106 361.497 361.415 360.85 367.724 359.784C374.146 358.681 379.353 356.056 383.153 352.061C386.421 348.598 388.74 344.337 390.298 338.972C391.248 335.586 391.78 332.275 392.236 329.346C392.35 328.623 392.464 327.9 392.578 327.177C392.958 324.78 393.414 322.421 393.87 319.948C394.212 318.083 394.554 316.181 394.896 314.279C396.34 305.946 397.784 297.233 399.229 288.444C400.673 279.769 402.041 270.98 403.371 262.457C404.701 254.162 406.031 245.64 407.437 237.155L408.425 230.763Z" fill="#F2F0FF" stroke="#35209D" stroke-width="2" mask="url(#path-1-inside-1_267_150)"/>
<path fill-rule="evenodd" clip-rule="evenodd" d="M388.131 226.654C382.697 227.186 377.262 227.719 371.866 228.252C345.871 230.23 319.915 234.377 294.11 236.888C293.464 235.823 292.21 236.013 291.45 236.736C288.866 236.508 285.978 234.529 283.659 236.584C283.583 236.584 283.507 236.546 283.431 236.546C279.289 228.556 276.401 220.071 273.626 211.548C271.84 206.298 269.446 201.237 265.038 197.737C257.513 192.486 240.221 181.871 231.366 182.327C231.214 180.729 230.492 179.093 229.276 178.066C231.936 173.5 221.257 170.532 220.497 171.065C220.991 155.808 213.809 142.567 197.999 139.523C183.824 136.555 163.72 136.061 156.081 150.899C155.245 150.823 146.694 150.747 145.858 150.861C144.566 149.225 130.429 164.711 136.243 170.076C84.4442 192.943 54.9913 190.203 40.6639 254.695C38.7258 260.745 38.5737 267.365 36.5215 273.301C29.2248 290.308 23.3343 308.457 21.8521 326.949C18.3178 327.862 17.8997 334.14 22.0041 335.015C23.5623 335.357 24.8924 335.852 26.0325 336.727C25.1204 351.908 28.8068 386.57 31.125 386.456C35.8375 401.447 56.8535 405.709 71.7129 400.42C69.1667 405.252 71.7129 408.296 71.7129 410.883C125.222 412.9 183.748 411.758 237.257 414.536C244.098 414.422 251.318 416.21 258.045 415.183C262.149 414.193 262.187 407.725 258.007 406.926L276.249 402.969C275.831 402.817 283.773 397.528 289.778 387.674C295.365 376.64 291.564 363.323 294.072 351.3C313.796 349.702 333.862 348.979 353.396 345.63C356.056 353.621 367.571 344.07 371.258 340.228C373.044 339.733 374.45 338.097 374.488 336.118C375.742 334.33 376.008 331.819 374.792 330.107C380.265 298.527 393.68 233.73 394.516 233.008L394.44 232.931C395.884 231.333 396.15 228.556 393.756 227.186C391.856 226.121 390.26 226.463 388.131 226.654Z" fill="#FBFAFF"/>
<path fill-rule="evenodd" clip-rule="evenodd" d="M181.772 344.831L185.952 347.495L220.155 358.529L241.057 361.192L258.159 358.529V387.826L261.579 415.221C260.059 417.998 245.618 417.998 218.255 415.221C200.811 413.432 137.079 412.595 122.562 412.215L121.726 412.177C104.662 411.682 87.8266 411.682 71.181 412.177V401.904L118.686 378.314L161.25 354.344L181.772 344.831ZM157.525 148.464L160.68 150.823L153.839 162.086L187.244 189.138V210.749L197.809 220.756L203.852 210.749L212.365 199.411L218.407 181.034L216.355 168.934L220.497 168.554C220.535 169.391 220.497 170.228 220.497 171.065C221.257 170.532 231.936 173.5 229.276 178.066C230.492 179.131 231.214 180.767 231.366 182.327C240.221 181.871 257.513 192.524 265.038 197.737C269.446 201.237 271.84 206.336 273.626 211.548L274.045 212.842L274.463 214.136L274.881 215.429C277.275 222.62 279.897 229.773 283.393 236.546C283.469 236.546 283.545 236.584 283.621 236.584C285.94 234.53 288.828 236.508 291.412 236.736C292.172 236.013 293.388 235.861 294.034 236.812L294.072 236.889L261.997 243.205L240.829 317.475L222.398 302.522L212.517 304.006L186.408 313.442L156.043 321.356L86.7245 340.494H77.9076L26.5647 328.052L21.9282 326.53C23.4484 308.153 29.3389 290.194 36.5596 273.339C38.6118 267.403 38.7638 260.783 40.702 254.733C55.0294 190.241 84.4823 192.981 136.281 170.038C130.505 164.673 144.604 149.187 145.896 150.823H145.972H146.162H146.39C148.404 150.747 155.359 150.823 156.119 150.899C156.537 149.986 156.993 149.225 157.525 148.464Z" fill="#C8BBF3"/>
<path fill-rule="evenodd" clip-rule="evenodd" d="M393.262 228.936L392.312 234.263C392.084 234.339 391.856 234.415 391.628 234.453C391.324 237.611 390.982 240.807 390.564 244.004L384.635 277.029C383.609 282.889 382.659 288.748 381.671 294.608L379.619 304.805C377.908 313.289 376.274 321.736 374.792 330.107C375.02 330.411 375.172 330.754 375.324 331.134L375.21 331.591L375.134 331.895L375.058 332.199C373.918 336.613 371.904 340.874 367.229 342.206C363.695 343.195 359.781 343.271 356.132 343.652L355.714 343.69L291.602 350.919C283.849 351.794 276.135 352.707 268.382 353.583L261.655 354.382C252.306 355.485 242.881 356.322 233.684 358.301C233.342 358.377 233.076 358.491 232.848 358.681C234.711 351.642 236.497 344.641 238.093 337.526C239.917 329.536 241.627 321.508 243.565 313.556C247.48 297.499 251.85 281.557 256.639 265.767C257.627 262.457 258.691 259.147 259.717 255.837L260.439 253.516L261.009 251.689C261.883 248.874 262.985 245.982 265.57 244.46C268.572 242.634 272.714 242.367 276.135 241.721L278.453 241.302C281.911 240.655 285.369 240.046 288.866 239.438C305.511 236.584 322.233 234.263 338.993 232.551C356.474 230.763 373.994 229.583 391.552 229.013L393.262 228.936ZM234.179 339.086H234.331L231.936 358.262C231.556 357.996 231.062 357.844 230.492 357.844C222.625 357.882 215.101 355.371 207.842 352.593L206.74 352.175L203.662 350.995C200.507 349.778 197.353 348.598 194.161 347.647L192.869 347.267L192.222 347.076C189.79 346.353 187.206 345.707 184.698 345.554H184.356L185.078 345.174C185.192 345.136 185.268 345.06 185.382 344.984C186.788 345.098 188.156 345.06 189.638 344.793C192.412 344.299 195.111 343.348 197.581 341.978L198.683 341.369L199.139 341.141L199.443 340.989L199.747 340.836C201.875 339.771 203.89 339.124 206.588 339.695C209.628 340.342 212.288 341.978 215.025 343.348L215.519 343.576L215.861 343.728L216.203 343.88L216.545 344.032C220.269 345.707 226.16 347.495 227.566 342.472C228.136 340.456 227.68 338.553 226.692 336.879C228.402 336.651 231.708 338.82 234.179 339.086ZM326.489 275.964L326.527 276.192C327.059 279.008 325.729 281.709 323.753 283.688C322.119 285.286 319.231 286.199 318.433 288.52C317.977 289.852 318.471 291.107 319.421 291.982L319.193 292.097L318.965 292.211L318.737 292.325L318.547 292.439L318.357 292.553C315.088 294.417 312.466 297.461 315.392 301.152C318.737 305.337 325.653 305.451 330.556 305.109L330.898 305.071C335.648 304.729 341.273 303.131 343.857 298.717C345.035 296.7 344.921 294.265 343.249 292.553C342.261 291.526 340.475 290.46 338.879 290.308C338.955 289.395 338.841 288.52 338.537 287.759C337.852 286.161 335.99 285.058 334.204 285.02C334.356 281.595 331.62 278.209 329.606 275.469L329.416 275.203L329.226 274.937C328.2 273.643 326.223 274.366 326.489 275.964ZM329.188 279.617L331.012 286.503L330.974 286.541C330.328 287.759 332.038 289.167 333.026 288.139L333.14 288.025C334.318 286.808 336.18 288.444 336.18 289.776C336.218 291.64 335.002 293.048 333.558 293.999L333.444 294.075L333.178 294.227C332 294.988 332.874 296.624 334.204 296.434C335.8 296.206 337.13 294.912 337.929 293.314C338.803 293.58 339.791 293.542 340.703 294.037C342.983 295.331 341.691 297.575 340.171 298.945L340.095 298.983L339.981 299.097C337.244 301.456 333.52 302.255 329.986 302.408H329.796C326.223 302.56 321.625 302.598 318.547 300.505C316.646 299.212 316.114 297.347 317.711 295.597C318.623 294.608 319.535 293.618 320.485 292.629C321.891 293.314 323.145 293.048 324.589 292.401C324.779 292.325 324.665 292.02 324.475 292.02C323.677 292.02 320.751 290.537 320.599 289.585C320.485 288.71 322.081 287.987 322.879 287.531L322.993 287.455L323.107 287.379C323.943 286.884 324.703 286.313 325.425 285.628C327.211 283.954 328.542 281.9 329.112 279.617H329.188Z" fill="#FBFAFF"/>
<path fill-rule="evenodd" clip-rule="evenodd" d="M157.069 147.399C158.665 143.328 164.138 144.926 163.53 149.187C163.15 151.736 161.782 154.438 160.528 156.683C159.501 158.509 158.323 160.297 156.765 161.629C159.577 164.254 162.504 166.804 165.506 169.201C168.774 171.826 172.195 174.223 175.767 176.468C178.883 178.408 182.152 180.159 185.078 182.365C187.814 184.42 190.284 186.931 191.539 190.165C192.869 193.628 192.299 197.204 191.311 200.628L191.197 201.009C190.17 204.433 188.422 208.543 190.854 211.777C192.109 213.413 193.895 214.592 195.453 215.886C196.821 217.065 198.113 218.321 199.329 219.691C201.914 222.658 204.042 226.007 205.372 229.735L205.486 230.078C206.626 233.388 207.462 237.421 205.904 240.655C205.448 241.568 204.042 241.264 203.776 240.389C203.206 238.334 203.244 236.204 202.788 234.111C202.294 231.942 201.496 229.888 200.431 227.985C198.379 224.218 195.605 221.022 192.299 218.321L191.311 217.522C188.726 215.429 186.37 213.184 185.876 209.684C185.306 205.955 186.826 202.379 187.776 198.878C188.46 196.405 188.65 194.046 187.928 191.839C187.054 193.285 185.838 194.655 184.888 195.872C182.988 198.308 181.088 200.743 179.149 203.14C177.173 205.613 175.273 208.162 173.449 210.749C172.651 211.891 171.815 213.07 171.017 214.25C170.409 215.125 169.572 216 168.926 216.913C169.078 217.408 169.078 217.94 168.774 218.321C165.278 223.039 160.3 213.184 159.007 210.711C156.385 205.651 154.409 200.248 151.749 195.188C149.012 189.937 145.896 184.838 142.4 180.006C140.31 177.115 137.953 174.375 136.015 171.369C131.493 175.479 125.526 178.256 120.016 180.767C113.973 183.507 107.74 185.752 101.546 188.149L99.7217 188.872C89.0807 193.019 78.1736 197.585 69.3188 205.004C58.9058 213.679 52.7872 225.778 48.1888 238.296C42.9062 252.717 38.5738 267.517 34.5074 282.318C32.4172 289.89 30.441 297.499 28.6169 305.147C26.9827 311.882 25.6146 318.654 23.7524 325.313C27.5908 325.16 31.9612 326.682 35.2295 327.101C50.1649 329.041 64.9104 332.161 79.0097 337.564C80.7579 338.249 81.2519 339.961 80.8719 341.369C81.86 341.103 82.8861 340.798 83.8742 340.532C82.7721 338.858 83.3041 335.814 83.3801 333.95V333.835C83.4561 331.324 83.7222 328.851 83.9122 326.34C84.2542 321.584 84.6723 316.904 85.2423 312.186L85.3943 311.007C86.0404 305.87 86.5344 300.695 87.2565 295.597L87.3325 295.026C86.9905 293.733 86.6105 292.439 86.1544 291.145C85.0523 287.721 83.4561 284.487 82.088 281.139C81.936 280.758 82.468 280.53 82.7341 280.758C85.0523 282.851 86.9145 285.514 88.3966 288.33C88.4346 288.216 88.4346 288.063 88.4726 287.949L88.6246 287.112C89.0427 285.058 89.5367 282.927 90.7908 281.253C90.9429 281.063 91.1709 281.024 91.3229 281.253C92.539 283.269 92.653 285.857 92.843 288.178C93.0331 290.803 93.0711 293.428 93.0331 296.054C92.9571 301.19 92.615 306.327 92.311 311.425C92.045 316.447 91.4749 321.394 90.7528 326.378L90.6008 327.329C90.2588 329.688 89.9548 332.085 89.4987 334.444L89.3847 335.091C89.1567 336.271 89.0047 337.907 88.5106 339.276C101.09 335.776 113.707 332.314 126.362 328.965C135.483 326.53 144.642 324.133 153.763 321.698C154.257 320.823 154.827 320.024 155.587 319.301C158.057 316.904 161.326 315.839 164.328 317.665C164.556 317.817 164.594 318.198 164.328 318.35C163.758 318.654 163.188 318.997 162.618 319.339L168.09 317.855C172.195 316.752 176.337 315.344 180.556 314.583C188.27 310.778 196.593 308.001 204.764 305.261L205.714 304.919C209.894 303.511 214.189 301.913 218.521 301.114C221.675 300.543 225.362 301.228 226.654 304.462C228.25 305.528 229.77 306.783 231.214 308.001C232.279 308.876 233.267 309.827 234.293 310.74L234.483 310.892C235.319 311.615 236.003 312.11 236.193 313.289C236.307 313.898 235.927 314.697 235.167 314.621C232.887 314.393 231.062 311.767 229.542 310.169C228.364 308.952 227.148 307.696 226.084 306.365C225.438 306.707 224.602 306.631 224.184 305.87C222.094 301.913 216.393 304.652 213.239 305.604L208.716 306.935C206.474 307.62 204.194 308.267 201.952 308.952C195.757 310.854 189.6 312.947 183.33 314.659C183.9 315.268 183.824 316.371 182.76 316.79C177.857 318.73 172.499 319.72 167.406 321.013C164.214 321.85 160.984 322.687 157.791 323.524C157.259 324.399 156.841 325.427 156.689 326.606C156.081 330.944 157.259 335.89 158.399 340.075L158.589 340.684C159.539 344.032 160.908 348.142 163.834 350.272C164.556 350.805 165.43 351.147 166.342 351.223C172.005 348.294 177.667 345.402 183.33 342.472C184.394 341.94 185.344 342.663 185.572 343.538C187.586 343.195 189.562 342.701 191.387 342.092C194.427 341.065 196.821 339.086 199.671 337.716C205.22 335.053 210.844 338.325 215.823 340.798L216.963 341.369C219.167 342.434 223.804 344.527 224.868 341.559C225.894 338.706 222.626 335.662 220.535 334.368C218.027 332.846 215.101 332.009 212.251 331.324C210.616 330.944 208.982 330.601 207.348 330.373C205.486 330.107 203.548 330.145 201.724 329.536C200.811 329.232 200.697 327.824 201.724 327.557C204.498 326.911 207.804 327.634 210.692 328.318L212.213 328.699C215.139 329.422 218.065 330.297 220.725 331.743C222.664 332.77 224.678 334.368 226.046 336.309C227.186 335.243 228.63 335.281 230.15 335.662L230.948 335.89C232.278 336.271 233.381 336.537 234.673 336.271C234.863 335.319 235.015 334.368 235.205 333.417C237.067 324.057 239.119 314.735 241.361 305.451C245.238 289.433 249.76 273.605 254.815 257.929L255.309 256.369C256.487 252.793 257.437 248.874 259.299 245.602C261.085 242.482 263.936 240.693 267.356 239.742C271.194 238.677 275.261 238.106 279.175 237.383C280.049 237.231 280.923 237.079 281.797 236.927C281.037 235.595 280.505 234.073 280.011 232.893L279.935 232.703C278.871 230.268 277.883 227.757 276.971 225.246L276.287 223.381C274.615 218.854 272.866 214.402 270.51 210.141C268.04 205.689 264.734 202.036 260.629 199.03C252.268 192.867 242.159 189.747 234.027 183.164C233.685 182.898 234.103 182.441 234.445 182.594C239.917 185.371 245.846 187.235 251.546 189.48L252.686 189.937C257.209 191.725 261.769 193.666 265.684 196.557C270.054 199.791 273.474 203.786 276.021 208.581C278.567 213.299 280.201 218.549 281.987 223.572L282.481 224.903C283.203 226.92 283.963 228.898 284.8 230.877C285.484 232.437 286.738 234.187 287.308 235.975C288.866 235.709 290.462 235.443 292.02 235.176C326.186 229.469 360.693 226.121 395.314 225.132C396.682 225.094 397.366 226.387 397.176 227.567C393.87 247.238 390.906 266.947 387.675 286.656C386.269 295.255 384.825 303.815 383.343 312.414C382.583 316.752 381.747 321.089 381.025 325.427C380.455 328.927 380.037 332.466 379.049 335.928C378.175 339.01 376.806 341.978 374.602 344.337C372.208 346.886 368.864 348.104 365.519 348.674C357.007 350.158 348.228 350.729 339.639 351.718L293.882 356.931C294.566 363.018 294.604 368.992 294.3 375.156L294.11 378.504C293.958 381.206 293.806 383.907 293.426 386.608C292.932 389.957 291.412 392.81 289.132 395.321C287.042 397.642 284.534 399.583 282.101 401.485C279.555 403.426 276.933 405.328 273.93 406.546L273.55 406.698C270.928 407.725 265.988 409.323 262.415 408.714C262.871 411.073 263.784 413.585 262.985 415.906C262.605 416.971 261.199 417.542 260.325 416.59C258.615 414.764 258.463 412.367 258.083 409.97C257.665 407.497 257.285 405.024 256.981 402.513C256.373 397.68 255.879 392.848 255.727 387.978C255.575 382.994 255.651 378.009 255.917 373.025C256.069 370.476 256.221 367.927 256.563 365.377C256.715 364.312 256.829 363.209 257.019 362.143C257.095 361.763 257.133 361.344 257.209 360.964L253.104 361.42C246.796 362.143 240.487 362.752 234.141 362.866C233.381 362.866 232.811 362.524 232.43 362.029C232.012 362.676 231.328 363.171 230.34 363.133C221.485 363.095 213.239 360.203 205.182 356.779C201.115 355.066 197.125 353.202 193.059 351.49C189.258 349.892 185.192 348.75 181.506 346.962L171.777 352.061C171.701 352.327 171.625 352.555 171.511 352.745C170.865 354.039 169.61 354.762 168.356 355.257C167.14 355.751 165.848 355.941 164.632 355.789C157.259 359.67 149.849 363.551 142.476 367.394L135.065 371.237C120.32 378.923 105.65 386.723 90.8289 394.218L89.7268 394.751C84.5963 397.338 79.1237 399.925 73.4232 401.866C73.3092 403.312 73.3852 404.719 73.4992 406.241L73.5372 406.584C73.6892 408.372 74.0692 410.655 72.6251 411.91C71.865 412.595 70.5349 412.595 70.0409 411.568C69.1288 409.742 69.9648 406.888 70.2309 404.872C70.3449 404.187 70.4589 403.426 70.6489 402.741C64.1503 404.681 57.4236 405.632 50.811 404.529C44.3504 403.464 39.3719 399.393 35.3435 394.408C31.0871 389.158 28.0848 383.032 26.4507 376.488C24.5885 369.03 24.4745 361.306 24.5125 353.659C24.5505 345.516 24.8545 337.336 25.8426 329.232C24.7405 328.965 23.5624 328.737 22.4603 328.813C21.9282 329.688 20.8641 330.031 19.914 329.955C17.8618 332.237 23.1063 334.558 24.7785 335.167C25.3485 335.357 25.3105 336.309 24.6265 336.271L24.2084 336.232C21.6242 336.08 18.9259 335.662 17.4058 333.227C16.1897 331.286 16.5697 329.003 18.0138 327.443C18.9639 318.35 21.2822 309.485 23.4104 300.619C25.5006 291.906 27.8568 283.269 30.327 274.632L31.4291 270.789C35.3055 257.282 39.4099 243.661 44.7684 230.725C47.4667 224.256 50.545 217.902 54.7254 212.233C58.6398 206.983 63.2382 202.455 68.5587 198.612C78.4397 191.459 90.0308 187.121 101.432 182.974L101.926 182.784C107.816 180.653 113.707 178.484 119.56 176.163C124.728 174.109 129.669 171.522 134.799 169.429C134.647 169.125 134.457 168.82 134.305 168.516L134.229 168.592L134.191 168.63C133.659 168.972 132.899 168.82 132.481 168.402C131.265 167.26 131.683 166.005 132.481 164.825L132.595 164.673C133.583 163.303 134.457 161.857 135.369 160.411L135.939 159.536C137.459 157.139 139.056 154.742 141.07 152.802C142.02 151.889 143.046 151.204 144.11 150.709C144.034 150.519 144.832 150.1 145.06 150.329C148.518 149.073 152.471 149.339 156.233 149.682M291.906 357.045L287.118 357.578C281.835 358.186 276.553 358.757 271.27 359.328L259.793 360.583C259.755 361.23 259.679 361.877 259.679 362.372C259.603 364.921 259.565 367.47 259.489 370.019C259.375 375.118 259.489 380.254 259.831 385.353C260.173 390.299 260.591 395.245 261.237 400.154L261.389 401.143L261.465 401.675C261.997 401.714 262.529 401.98 262.985 402.513C263.974 403.654 267.47 402.551 268.838 402.056C271.08 401.257 273.208 399.887 275.185 398.517C277.085 397.186 278.833 395.626 280.467 393.99L281.835 392.658C283.165 391.326 284.534 389.881 285.37 388.206C286.472 385.924 286.624 383.108 286.966 380.635C287.384 377.553 287.84 374.509 288.372 371.465M152.661 324.856L152.167 324.97C134.077 329.764 116.063 334.711 97.9355 339.314C88.9667 341.597 79.9598 343.69 70.9529 345.935L69.5088 346.315C62.4401 348.104 55.2574 350.272 49.8229 355.409C49.6329 355.599 49.3289 355.295 49.5189 355.104C55.3714 348.864 63.6942 346.239 71.675 343.956C73.1572 343.538 74.6393 343.119 76.1214 342.701C65.2524 338.82 54.2313 335.433 42.9442 333.036C40.056 332.428 37.0917 331.971 34.2034 331.324C32.1892 330.906 30.213 330.259 28.1988 329.726L26.6407 329.346L26.6027 334.33C26.5647 341.407 26.6027 348.446 26.9447 355.523L27.0207 356.817C27.4387 364.693 28.0848 372.683 30.8971 380.102C33.1773 386.114 36.7876 391.783 41.5001 396.197C43.8943 398.403 46.4406 400.154 49.6329 400.991C52.5972 401.79 55.6755 401.866 58.6778 401.675C73.1952 400.648 86.1544 392.772 98.7716 386.228C119.408 375.536 140.044 364.845 160.718 354.191C160.148 353.811 159.615 353.354 159.159 352.86C156.385 350.006 154.941 346.087 153.953 342.282C152.927 338.249 152.319 333.912 152.243 329.726M178.959 358.339C179.149 358.224 179.339 358.377 179.377 358.567C179.453 360.165 178.579 361.687 177.933 363.133L177.857 363.285C177.059 365.035 176.185 366.785 175.311 368.497C173.525 371.922 171.663 375.308 169.724 378.656C165.81 385.353 161.478 391.783 156.347 397.642C155.169 398.974 153.269 397.262 154.029 395.854C157.601 389.005 161.782 382.537 166.114 376.107C168.28 372.911 170.409 369.677 172.613 366.481C173.525 365.149 174.437 363.817 175.387 362.524L175.957 361.725M393.262 228.936C375.134 229.469 357.007 230.687 338.955 232.513C322.157 234.225 305.436 236.546 288.828 239.4C285.37 240.008 281.873 240.617 278.415 241.264L276.325 241.645C272.866 242.291 268.61 242.558 265.532 244.422C262.263 246.363 261.389 250.472 260.325 253.82C259.071 257.777 257.817 261.734 256.601 265.729C251.812 281.519 247.442 297.461 243.528 313.518C241.589 321.47 239.879 329.498 238.055 337.488C236.459 344.603 234.673 351.604 232.811 358.643C233.039 358.453 233.305 358.339 233.647 358.262C242.844 356.284 252.268 355.447 261.617 354.343L262.529 354.229C272.22 353.088 281.873 351.946 291.564 350.881L355.676 343.652C359.439 343.233 363.505 343.157 367.191 342.168C373.462 340.456 374.906 333.455 375.97 327.862L376.008 327.71C379.163 310.854 381.709 293.885 384.635 276.991M234.369 339.124C231.898 338.972 228.478 336.689 226.578 336.841C227.566 338.515 228.022 340.418 227.452 342.434C225.856 348.065 218.673 345.174 215.215 343.424C212.365 342.016 209.628 340.266 206.474 339.619C202.902 338.858 200.507 340.304 197.505 341.94C195.035 343.271 192.337 344.261 189.562 344.755C188.08 345.022 186.712 345.06 185.306 344.946C185.23 345.022 185.116 345.06 185.002 345.136L184.28 345.516C187.624 345.668 191.007 346.696 194.123 347.647C197.353 348.636 200.507 349.816 203.624 350.995L206.702 352.175C214.341 355.104 222.208 357.882 230.492 357.844C231.1 357.844 231.556 357.996 231.936 358.262M220.421 321.432C222.892 321.127 225.134 321.47 227.11 323.068C229.466 325.008 231.062 328.204 234.483 328.433C235.471 328.509 235.699 329.878 234.711 330.183C232.164 330.944 230.112 329.574 228.402 327.786L227.224 326.568C225.514 324.78 223.956 323.448 221.029 323.524C217.913 323.639 214.835 324.361 211.757 324.704C208.26 325.122 204.764 325.465 201.267 325.769C201.115 325.769 201.077 325.541 201.229 325.503L205.144 324.514M218.065 311.387L218.483 311.349C222.056 311.006 225.324 311.007 228.516 312.909L229.124 313.289C232.012 315.04 235.129 317.094 236.915 319.948C237.219 320.404 236.725 320.975 236.231 320.823C232.773 319.986 230.264 317.437 227.338 315.572C224.07 313.442 220.725 313.784 217.001 314.126C213.391 314.431 209.818 314.887 206.246 315.496C202.902 316.067 199.519 316.942 196.137 317.246C195.757 317.246 195.529 316.676 195.909 316.485C199.329 314.773 203.32 313.974 207.044 313.175M326.49 276.04C326.148 274.404 328.162 273.605 329.112 274.937L329.302 275.203C331.316 277.981 334.28 281.481 334.128 285.02C335.914 285.058 337.777 286.161 338.461 287.759C338.765 288.52 338.879 289.395 338.803 290.308C340.437 290.422 342.185 291.488 343.173 292.553C344.807 294.265 344.959 296.7 343.781 298.717C341.197 303.092 335.572 304.69 330.822 305.071H330.67C325.767 305.413 318.699 305.337 315.354 301.114C312.124 297.043 315.697 293.771 319.383 291.982C318.433 291.107 317.939 289.852 318.395 288.52C319.231 286.199 322.119 285.286 323.715 283.688C325.691 281.709 327.022 279.008 326.49 276.192M329.188 279.617C328.656 281.976 327.326 284.106 325.463 285.819C324.741 286.465 323.981 287.036 323.145 287.569L323.031 287.645C322.309 288.063 320.523 288.824 320.637 289.738C320.789 290.689 323.715 292.173 324.513 292.173C324.703 292.173 324.779 292.439 324.627 292.553C323.183 293.2 321.929 293.466 320.523 292.781C319.573 293.733 318.661 294.76 317.749 295.749C316.153 297.499 316.685 299.364 318.585 300.657C321.625 302.75 326.262 302.712 329.834 302.56C333.406 302.408 337.245 301.609 340.019 299.212L340.133 299.097C341.653 297.728 343.021 295.445 340.703 294.151C339.791 293.656 338.803 293.656 337.929 293.428C337.131 295.026 335.8 296.282 334.204 296.548C332.912 296.738 332 295.102 333.178 294.341L333.444 294.189C334.926 293.238 336.181 291.792 336.142 289.89C336.104 288.558 334.28 286.922 333.102 288.139L333.064 288.216C332.076 289.357 330.29 287.911 330.974 286.656L331.012 286.618M95.8073 214.174C95.8073 213.907 96.1874 213.793 96.3394 214.021C98.6576 218.131 99.8737 223.115 101.128 227.643C102.42 232.361 103.484 237.117 104.396 241.949C106.296 251.689 107.322 261.354 107.398 271.284C107.398 272.692 105.118 273.072 104.89 271.627C103.408 261.962 101.964 252.336 100.444 242.672C99.6837 237.84 98.8096 233.008 97.9735 228.137M118.8 221.327C118.61 220.756 119.446 220.566 119.674 221.098C124.348 232.551 125.906 245.525 122.904 257.625C122.448 259.489 119.75 258.69 120.092 256.864M178.921 211.13C178.883 210.711 179.453 210.635 179.643 210.94C181.848 214.06 182.76 218.245 186.636 219.843C188.574 220.642 190.74 220.49 192.451 221.859C193.591 222.773 194.465 224.218 193.629 225.588C193.363 226.045 192.565 226.273 192.185 225.778C191.653 225.094 191.349 224.218 190.588 223.724C189.524 222.963 188.118 222.925 186.902 222.582C185.344 222.126 183.976 221.327 182.836 220.147M215.823 159.156C216.051 159.042 216.279 159.118 216.431 159.308C216.621 159.574 216.621 159.879 216.355 160.069C216.697 160.754 217.115 162.504 217.153 162.77C217.381 163.798 217.647 164.825 217.875 165.852C218.407 167.907 218.863 170 219.395 172.054C219.965 174.223 220.611 176.392 221.333 178.522C221.371 178.675 221.447 178.789 221.485 178.941L221.561 179.169L221.599 179.131C221.751 178.903 222.056 179.055 222.018 179.321C221.979 179.55 221.941 179.778 221.904 180.006L221.979 180.197C222.474 181.49 222.778 182.86 221.904 184.001C221.561 184.42 221.219 184.686 220.763 184.762C220.041 187.159 219.129 189.518 218.141 191.763L217.837 192.41C216.393 195.682 214.873 198.954 212.593 201.77C210.084 204.814 206.664 206.906 204.498 210.255C203.472 211.815 202.788 213.451 202.218 215.201L201.99 215.886C201.572 217.141 201.115 218.321 199.937 219.082C199.557 219.31 199.025 219.234 198.721 218.93C196.327 216.38 198.835 211.662 200.279 209.227C202.294 205.803 205.182 203.634 208.108 201.047C211.224 198.27 213.239 194.579 215.177 190.888C216.355 188.643 217.495 186.36 218.711 184.116C217.457 183.012 217.039 180.805 216.621 179.245L216.583 179.093C215.861 176.62 215.329 174.109 214.949 171.56C214.607 169.125 214.455 166.727 214.569 164.254L214.607 163.646M220.497 170.761C220.231 170.38 220.687 169.962 221.067 170.038C223.386 170.532 225.666 171.94 227.718 173.043L227.946 173.158C229.618 174.071 231.29 175.136 232.164 176.886C233.115 178.789 233.039 180.958 232.925 183.012V183.202C232.773 185.676 232.735 188.225 232.202 190.66C231.936 191.915 230.796 192.258 229.846 191.953C228.706 195.568 225.514 198.231 223.158 201.047C220.155 204.662 220.725 209.57 221.029 213.945C221.143 215.696 218.939 216.228 217.837 215.277L215.215 213.108C214.797 212.728 214.341 212.385 213.923 212.005C213.543 211.701 213.201 211.396 212.821 211.054L212.289 210.559C212.061 210.331 210.996 209.151 210.654 209.113C209.894 208.999 208.108 210.978 207.5 211.624L207.424 211.701C206.284 212.842 205.22 214.06 204.27 215.353C204.08 215.581 203.738 215.391 203.852 215.125C204.726 213.261 205.752 211.472 206.93 209.798L207.158 209.456C207.956 208.39 209.02 206.488 210.426 206.145C212.137 205.765 213.885 207.477 215.139 208.428L215.215 208.504C215.823 208.961 216.393 209.418 217.001 209.874C216.925 206.602 217.343 203.33 219.015 200.514C220.193 198.536 221.979 197.09 223.5 195.378C225.172 193.475 226.084 191.154 227.604 189.176C227.794 188.91 228.06 188.795 228.364 188.757C228.44 187.159 228.668 185.561 228.82 184.001L228.858 183.545C229.048 181.833 229.466 179.778 228.63 178.18C227.832 176.658 226.046 175.593 224.716 174.603L223.614 173.766M145.288 152.764C144.604 153.182 143.92 153.677 143.35 154.286C141.488 156.264 140.158 158.737 138.865 161.096C138.181 162.39 137.497 163.646 136.775 164.939C136.471 165.51 136.167 166.043 135.825 166.575C135.673 166.842 135.255 167.336 135.027 167.641C135.255 167.983 135.521 168.326 135.787 168.63C135.901 168.744 142.552 176.049 144.908 178.903C148.48 183.278 151.673 187.882 154.371 192.829C157.031 197.661 159.083 202.797 161.554 207.705C162.808 210.179 164.176 212.614 165.924 214.744C166 214.82 166.076 214.897 166.152 214.973C166.836 213.146 168.546 211.206 169.382 210.103L169.458 209.988C171.359 207.401 173.411 204.89 175.463 202.417C177.363 200.172 179.301 197.965 181.278 195.796L182.038 194.997C183.406 193.513 185.192 191.269 187.206 190.203C186.978 189.823 186.75 189.442 186.446 189.062C184.546 186.589 181.848 184.762 179.225 183.164L177.515 182.137C171.055 178.18 164.67 174.071 159.045 168.934C156.081 166.233 153.155 163.379 150.647 160.221L149.773 159.118M156.081 150.823C153.041 151.09 149.773 151.014 146.96 152.003C149.469 154.362 151.825 156.911 154.257 159.308C154.485 157.672 154.903 156.074 155.283 154.514" fill="#583ED7"/>
<path fill-rule="evenodd" clip-rule="evenodd" d="M160.946 23.5139L163.758 26.8241C162.2 27.9275 160.756 29.0309 159.387 30.1343C165.772 25.987 172.803 23.5139 180.441 23.5139C195.111 23.5139 224.944 36.1459 231.67 45.2394C235.015 49.7672 241.247 63.6167 244.478 78.6838C247.062 90.7832 250.938 125.027 247.062 137.887C242.121 154.362 225.894 169.543 209.172 169.543C192.451 169.543 166.456 157.444 147.986 130.962C147.15 129.745 137.421 128.337 130.505 123.809L132.329 143.861L133.697 155.503L133.393 156.34C128.414 169.771 124.5 176.772 121.612 177.343C118.647 177.952 112.605 173.082 103.522 162.771L102.344 157.9C99.3796 145.459 97.8975 138.762 97.8975 137.849V137.697C97.9355 135.604 98.6575 123.657 98.6955 120.461V72.3298C108.462 39.7985 117.811 23.5139 126.704 23.5139H160.946Z" fill="#FBFAFF"/>
<path fill-rule="evenodd" clip-rule="evenodd" d="M137.763 12.4418C140.652 11.3384 143.958 11.5287 146.694 13.2028C152.053 12.9745 157.373 16.0944 160.185 20.6983C160.261 20.7744 160.299 20.8124 160.376 20.8885L160.984 21.5734C161.554 22.2202 162.124 22.9431 162.618 23.7041C160.337 23.7421 158.399 24.6934 157.069 26.5958C156.119 27.9275 158.285 29.2211 159.273 27.9655L159.311 27.9275C160.109 26.786 161.326 26.3675 162.656 26.3294C163.036 26.3294 163.34 26.1772 163.53 25.9489C163.606 26.2533 163.682 26.5577 163.758 26.8621C170.56 24.2368 177.857 23.5139 185.154 24.1607C184.85 24.6933 184.584 25.226 184.356 25.7968C184.128 26.4436 184.622 27.2045 185.268 27.3948C185.952 27.585 186.598 27.1665 186.826 26.5577L186.864 26.4816C187.13 25.6826 187.586 24.9977 188.232 24.4651C191.653 24.9216 195.073 25.6826 198.379 26.6338C202.37 27.7753 206.322 29.183 210.198 30.7811C209.552 31.0474 208.982 31.4659 208.564 32.1889C207.766 33.6347 209.932 34.9283 210.768 33.5586L210.806 33.5205C210.882 33.3684 210.958 33.2923 210.996 33.2162L211.11 33.1781L211.338 33.102L211.414 33.064C211.49 33.064 211.528 33.064 211.718 33.0259C211.984 33.0259 212.212 33.0259 212.479 33.0259C213.087 33.0259 213.467 32.6835 213.619 32.265C215.519 33.1401 217.419 34.0532 219.243 34.9664L219.699 35.1947C225.4 38.1624 230.834 42.1195 233.951 47.8647C234.141 48.2452 234.217 48.6638 234.179 49.0823C234.863 49.8813 235.509 50.7184 236.117 51.5554C238.017 54.1427 239.423 57.0724 240.715 59.9641C243.376 65.8235 245.162 71.8352 246.53 78.0751C247.86 84.1247 248.962 90.2125 249.95 96.3002C251.052 103.073 252.002 109.921 252.192 116.77C252.534 129.022 250.14 141.349 243.261 151.66C237.143 160.868 227.87 168.173 216.925 170.532C205.79 172.929 194.009 170.608 185.192 163.151C183.786 161.971 183.976 159.536 185.192 158.319C186.56 156.949 188.612 157.139 190.018 158.319C198.303 165.32 210.312 166.385 220.269 162.847C229.466 159.536 236.687 151.927 241.133 143.404C246.53 132.979 247.442 120.994 246.606 109.465C246.15 103.149 245.2 96.8329 244.25 90.5929L243.68 86.8262C243.033 82.755 242.349 78.6458 241.475 74.6127L241.285 73.6615C240.221 68.7913 238.967 63.7689 237.029 59.2031C236.003 56.8061 234.787 54.4851 233.533 52.1642C233.305 51.7076 233.039 51.251 232.772 50.8325C232.43 50.9467 232.05 50.9847 231.632 50.8325C228.098 49.7291 224.45 49.0062 220.763 48.7399C219.091 48.6257 217.381 48.6257 215.709 48.6638C212.821 48.5116 209.856 48.7399 207.082 49.653C206.816 49.4247 206.55 49.1964 206.284 48.9681C206.208 48.9681 206.132 48.9681 206.056 48.9301C205.372 48.7779 204.878 48.2833 204.574 47.6745C204.574 47.6365 204.536 47.5984 204.536 47.5604C204.194 47.294 203.814 47.0277 203.472 46.7613C202.598 46.9896 201.838 46.2667 201.609 45.4677C201.419 45.3536 201.229 45.2014 201.039 45.0872C200.887 45.1253 200.735 45.1633 200.583 45.1633C199.937 45.2014 199.329 45.1253 198.759 44.8209C198.037 44.4404 197.581 43.7936 197.277 43.1087C196.175 43.1848 195.073 42.8043 194.123 42.1956C193.325 41.6629 192.717 40.94 192.109 40.2551C184.774 36.9829 176.793 35.0425 168.774 34.5479C167.976 34.7 167.216 34.8903 166.418 35.0805C166.228 35.1186 165.962 35.2327 165.658 35.3469C167.444 35.1186 169.268 35.1186 171.093 35.3849C179.795 36.6405 186.56 43.1468 192.413 49.3106C193.781 49.0442 195.187 50.8325 193.933 52.012L183.9 61.2577C184.128 62.285 182.95 63.3123 181.924 63.0841C180.175 62.6655 178.427 62.247 176.679 61.8665C174.855 62.7416 172.537 62.5894 170.903 61.3338C170.827 61.2577 170.674 61.1816 170.522 61.0675C170.37 61.1816 170.218 61.2958 170.142 61.3338C169.534 61.7143 168.85 61.8285 168.128 61.7143C167.406 61.6002 166.798 61.2577 166.228 60.8012C165.886 60.4968 165.05 59.3173 164.594 59.2412H164.556C164.86 59.2412 163.872 60.1543 163.606 60.3446C162.998 60.7631 162.314 61.0294 161.554 60.9153C160.223 60.7631 159.083 59.5456 158.437 58.4422L158.399 58.3661L158.361 58.328V58.4041V58.4422C158.247 58.7085 157.943 59.0129 157.753 59.2031C157.145 59.7358 156.423 59.9641 155.663 59.8119C155.017 59.6978 154.447 59.2792 153.991 58.8226L153.915 58.7465C153.801 58.5944 152.927 57.4149 153.041 57.1485V57.1105H153.003C152.471 57.2246 152.015 57.1105 151.711 56.8441C149.886 56.4636 148.1 55.969 146.352 55.3983C146.2 55.7788 146.086 56.1593 145.972 56.5397C146.922 57.1105 147.796 57.9475 148.594 58.5563C150.115 59.6978 151.635 60.8012 153.193 61.9426L159.235 66.3942L159.919 66.204C160.794 65.9757 161.554 66.4703 161.896 67.2694L161.934 67.3455C162.048 67.6879 162.2 67.9923 162.39 68.2967C163.91 68.2206 165.164 69.1718 165.582 70.5035C165.962 70.5035 166.342 70.5035 166.722 70.5415C167.786 70.6557 168.508 71.4547 168.28 72.52V72.5961L168.242 72.7103C168.85 72.9766 169.306 73.4712 169.382 74.2322C169.534 74.4605 169.686 74.7649 169.762 75.0312C170.218 76.5912 169.344 78.4936 168.888 79.9775L168.85 80.0916C168.546 81.0809 168.242 82.0321 167.938 83.0213L167.178 85.4184C165.05 92.1529 162.998 99.2299 164.708 106.269C165.088 107.753 163.188 108.438 162.352 107.258C160.338 104.443 158.171 101.779 155.929 99.2299H155.815C154.219 98.9255 153.611 97.7841 152.889 96.6426C152.471 96.7568 152.015 96.7948 151.559 96.7187C150.913 96.6046 150.343 96.2241 149.886 95.7675C149.506 95.387 149.126 94.3597 148.67 94.0934C148.1 93.789 146.96 94.2456 146.276 94.1314C145.706 94.0553 145.212 93.8651 144.68 93.6368C143.768 94.8924 143.122 96.3763 142.97 97.9743C142.894 98.5831 142.742 99.1158 142.476 99.5343C143.426 99.4962 144.414 99.5723 145.364 99.7626C148.898 100.409 151.445 102.616 152.851 105.85C152.927 106.003 152.737 106.117 152.661 105.964C150.533 102.692 145.934 102.54 142.59 103.682C139.055 104.899 137.041 108.019 136.357 111.596C135.597 115.515 136.585 119.738 138.713 123.048C139.702 124.608 141.032 126.016 142.856 126.587C144.984 127.271 146.96 126.054 149.126 126.663C150.609 127.081 151.255 128.527 150.989 129.973C150.875 130.544 150.685 131.038 150.419 131.457C151.217 133.017 151.939 134.615 152.851 136.099C154.295 138.382 156.005 140.246 157.867 142.148C159.805 144.089 161.782 146.029 163.872 147.856C165.848 149.606 168.128 150.823 170.218 152.421C171.701 153.525 172.423 155.123 171.701 156.911C171.093 158.395 169.078 159.651 167.482 159.004C164.366 157.71 161.63 155.541 159.159 153.296C156.841 151.204 154.865 148.731 153.345 145.991C151.901 143.442 150.875 140.55 149.963 137.735L149.848 137.392C149.43 136.061 148.974 134.577 148.708 133.055C146.998 134.006 144.68 134.12 142.856 133.854C139.892 133.435 137.231 131.951 135.179 129.783C134.229 128.755 133.393 127.614 132.671 126.358C132.747 127.119 132.785 127.842 132.823 128.527C134.495 130.391 135.179 133.055 134.609 135.49C136.015 136.936 136.433 139.143 135.673 141.007C137.231 142.529 137.155 145.002 136.509 147.209C138.333 149.263 138.523 152.459 137.079 154.742L137.041 154.895C138.485 157.33 138.143 160.45 136.357 162.58C137.573 164.977 137.383 168.211 134.305 169.125C133.165 169.467 132.101 169.163 131.265 168.554C132.025 172.245 132.329 176.011 131.341 179.74C130.961 181.224 129.517 182.289 127.996 182.289C126.742 182.289 125.792 181.642 125.184 180.729C125.26 182.594 125.146 184.496 124.728 186.36C124.5 187.502 123.436 188.415 122.296 188.681C122.714 189.138 122.866 189.785 122.486 190.508C120.852 193.437 116.823 192.22 116.557 189.404C115.417 188.567 114.923 187.197 114.695 185.676C114.391 183.507 114.277 181.338 113.897 179.207L113.745 179.321L113.669 179.398L113.631 179.55C113.441 180.615 112.833 181.376 112.035 181.795C112.187 183.659 111.883 185.523 110.705 186.931C109.907 187.882 108.577 188.225 107.436 188.035C107.36 188.035 107.284 188.035 107.208 188.035C104.624 187.692 103.104 185.219 103.788 182.974C102.762 181.68 102.306 180.082 102.61 178.484C100.596 177.153 100.634 174.223 101.318 171.864C99.1896 170.19 98.3915 167.07 99.4556 164.597C97.5555 162.238 97.2894 158.928 98.5815 156.226C96.4913 154.514 96.4913 151.166 98.5815 149.416C97.4794 147.209 96.7954 144.583 97.8975 142.567C97.0994 141.692 96.6814 140.474 96.7954 139.295C96.9094 137.545 98.0875 136.327 99.5316 135.528L99.6457 134.995C99.9877 135.033 100.33 134.957 100.672 134.653C100.976 134.348 101.318 134.12 101.622 133.892C102.002 133.892 102.306 133.702 102.534 133.473C103.142 133.245 103.826 133.169 104.586 133.169C106.182 133.169 106.258 130.734 104.738 130.582C104.51 130.353 104.168 130.201 103.826 130.201H103.56C102.914 130.201 102.268 130.239 101.66 130.506C101.28 130.658 100.976 130.924 100.748 131.228C100.71 131.685 100.444 132.142 99.9117 132.522C99.2656 132.979 98.4295 133.017 97.7455 132.598C96.7954 132.028 96.7954 131.152 96.9094 130.201C97.1374 128.109 95.9593 126.168 96.2253 124.037C96.3393 123.086 96.6814 122.287 97.1754 121.64C96.1113 120.042 95.9213 117.95 96.7194 116.199C95.0092 114.335 94.7052 111.481 95.8073 109.237C95.8073 109.199 95.8453 109.122 95.8453 109.084C95.9593 108.704 96.1493 108.361 96.3393 108.019C95.3892 106.345 95.3892 104.29 96.3773 102.616C94.8952 100.866 94.8572 98.1265 96.1493 96.2621C96.1493 96.1099 96.1873 95.9578 96.1873 95.8056C95.5793 94.2456 95.7313 92.4193 96.4913 90.9734C96.2253 90.3266 95.9973 89.6417 95.8833 88.9188C95.5413 87.0545 95.7313 85.2281 96.2253 83.4018C96.3013 83.0974 96.4153 82.8311 96.4913 82.5267C96.4913 81.2711 96.5674 80.0155 96.6054 78.798C96.3773 77.7326 96.3013 76.5912 96.3013 75.5258V74.841C96.3013 73.0527 96.1493 70.4654 97.2894 68.9815C96.5674 67.3455 96.8714 65.2909 98.0495 63.9972C97.2134 62.5514 97.0234 60.7631 97.8595 59.1651C98.0115 58.8987 98.1635 58.6705 98.3155 58.4422C98.2395 56.9583 98.5435 55.4363 99.3416 53.9905C99.8357 53.0393 100.596 52.2022 101.508 51.5554C101.508 51.3652 101.47 51.1749 101.47 50.9847C101.47 50.1096 101.66 49.2725 102.002 48.4735C101.432 47.4843 101.166 46.3809 101.508 45.2014C101.888 43.8697 102.876 42.6902 104.092 42.0434C104.206 40.7878 104.396 39.4941 104.662 38.2766C103.902 36.6025 104.51 34.3576 106.22 33.3684C105.992 32.0367 106.182 30.6289 107.17 29.5635C107.55 29.145 107.968 28.8787 108.462 28.6504C108.234 27.2806 108.501 25.8728 109.413 24.7694C110.173 23.8563 111.313 23.3236 112.453 23.2475C112.909 20.8885 115.151 19.1383 117.545 19.2524C117.849 18.2251 118.571 17.312 119.674 16.8554C119.94 16.7413 120.244 16.6652 120.51 16.6271C122.448 14.6867 125.336 13.355 127.806 12.6701C130.315 11.9852 132.861 11.9091 134.989 12.7081L135.141 12.7842L135.331 12.7462C136.243 12.4799 137.003 12.4418 137.763 12.4418ZM118.761 172.473C118.077 172.283 117.355 172.701 117.165 173.386C116.975 174.071 117.393 174.756 118.077 174.984C118.914 175.25 119.788 175.326 120.662 175.326C121.346 175.326 121.954 174.718 121.954 174.033C121.954 173.31 121.346 172.739 120.662 172.739C119.94 172.701 119.446 172.663 118.761 172.473ZM112.833 158.699C111.845 158.699 110.971 158.928 110.249 159.651C109.755 160.107 109.755 161.02 110.249 161.477C110.743 161.933 111.503 161.971 112.035 161.515L112.149 161.439L112.187 161.401C112.225 161.363 112.263 161.363 112.301 161.325L112.225 161.363C112.149 161.401 112.301 161.325 112.377 161.287H112.415H112.491C112.605 161.287 112.757 161.287 112.871 161.287C113.555 161.287 114.201 160.678 114.163 159.993C114.087 159.27 113.555 158.699 112.833 158.699ZM131.683 150.481C133.089 149.606 131.835 147.437 130.429 148.198L130.391 148.236C129.669 148.693 128.794 148.617 127.958 148.617C126.286 148.617 126.286 151.204 127.958 151.204H128.224C129.403 151.204 130.619 151.09 131.683 150.481ZM120.624 141.007C119.56 140.817 118.381 140.626 117.279 140.741L117.089 140.779H116.747C116.443 140.779 116.177 140.893 115.911 141.083C115.531 141.235 115.189 141.425 114.885 141.73C113.631 142.833 115.455 144.66 116.709 143.556C116.785 143.48 116.861 143.442 116.937 143.404L117.013 143.366H118.381C118.495 143.366 118.647 143.328 118.761 143.29C119.218 143.366 119.636 143.442 119.902 143.48C121.574 143.822 122.258 141.311 120.624 141.007ZM119.446 116.123C117.431 115.172 115.151 115.172 113.289 116.504C111.959 117.455 113.175 119.662 114.543 118.787L114.581 118.749C114.733 118.635 114.923 118.52 115.113 118.444C116.063 118.711 117.013 118.749 117.963 118.406L118.077 118.368L118.153 118.406C119.636 119.053 120.966 116.808 119.446 116.123ZM141.564 112.052C139.511 111.824 139.511 108.59 141.564 108.818C145.934 109.313 149.886 111.253 152.813 114.601C154.181 116.161 151.939 118.406 150.571 116.922L150.533 116.884C148.214 114.221 145.098 112.433 141.564 112.052ZM118.571 95.387C118.115 95.349 117.659 95.3109 117.203 95.349C116.139 95.387 114.809 96.1099 115.303 97.4036C115.683 98.4309 116.937 98.4689 117.545 97.9363C117.811 97.9363 118.039 97.9743 118.305 97.9743C118.99 98.0504 119.636 98.1646 120.32 98.3167C121.954 98.6211 122.638 96.148 121.004 95.8056L120.282 95.6534C120.054 95.6153 119.788 95.5773 119.56 95.5012C119.408 95.4251 119.256 95.387 119.066 95.349H118.99H118.571V95.387ZM105.688 75.2975L105.536 75.2595C103.332 74.9932 99.8357 75.2215 99.5696 78.037C99.4176 79.597 101.66 79.6731 102.078 78.3414C103.712 78.037 105.308 77.999 106.942 78.1892C107.55 77.5804 107.55 76.3629 106.524 76.0585C106.41 75.678 106.106 75.3356 105.688 75.2975ZM155.701 70.5796C155.207 70.123 154.371 70.0469 153.877 70.5796C153.573 70.8839 153.345 71.2264 153.155 71.6069L153.041 71.8732C153.003 71.9112 153.003 71.9493 152.965 71.9873C152.927 72.0634 152.889 72.1395 152.813 72.2156L152.775 72.2537L152.737 72.2917C152.281 72.7864 152.205 73.6615 152.737 74.118C153.231 74.5746 154.067 74.6507 154.561 74.118C154.865 73.8137 155.093 73.4712 155.283 73.0907L155.397 72.8244C155.435 72.7864 155.435 72.7483 155.473 72.7103C155.511 72.6342 155.549 72.5581 155.625 72.482L155.663 72.4439C155.663 72.4439 155.663 72.4439 155.701 72.4059C156.195 71.9113 156.233 71.0742 155.701 70.5796ZM129.136 67.1933C127.312 65.8996 125.146 65.8235 123.474 67.3835C122.258 68.525 124.044 70.3132 125.26 69.2479L125.298 69.2098C125.336 69.1718 125.374 69.1337 125.45 69.0957C125.678 69.2859 125.944 69.4001 126.248 69.4001C126.324 69.4001 126.4 69.4001 126.514 69.4001H126.628H126.704L126.78 69.4381C126.894 69.4762 127.046 69.5523 126.818 69.4381C126.856 69.4762 126.894 69.4762 126.932 69.5142L127.008 69.5903C127.502 70.0469 128.338 70.123 128.832 69.5903C129.707 69.324 130.163 67.9162 129.136 67.1933ZM146.998 62.9699C148.632 62.5133 147.948 60.0021 146.352 60.4587C144.642 60.9533 143.844 62.5514 143.502 64.1494C143.35 64.8343 143.692 65.5572 144.414 65.7474C145.06 65.9377 145.858 65.5191 146.01 64.8343C146.124 64.3396 146.238 63.9211 146.428 63.5406L146.542 63.3123C146.58 63.1982 146.618 63.1982 146.808 63.046C146.77 63.046 146.922 62.9699 146.998 62.9699ZM119.902 49.8813L119.636 49.8052C118.077 49.4628 116.025 49.2725 115.075 50.8325C114.201 52.2403 116.367 53.5339 117.279 52.2022H117.317H117.355L117.773 52.1642C118.267 52.1642 118.761 52.2403 119.218 52.3544C120.814 52.773 121.498 50.2618 119.902 49.8813ZM175.881 39.9127C177.059 38.7332 175.235 36.9068 174.057 38.0863C173.107 39.0375 172.233 39.9507 171.625 41.1302C171.321 41.739 171.473 42.538 172.081 42.9185C172.651 43.2609 173.525 43.0707 173.867 42.4619C174.361 41.4346 175.007 40.7878 175.881 39.9127ZM160.984 36.8307C159.805 37.5156 159.045 38.6571 158.589 39.9888C158.361 40.6356 158.855 41.3965 159.501 41.5868C160.185 41.777 160.832 41.3585 161.06 40.7497L161.098 40.6736C161.212 40.3312 161.402 39.9127 161.668 39.6083C161.858 39.3419 162.2 39.0756 162.428 38.9995C162.998 38.7712 163.416 38.2385 163.378 37.6298C162.39 37.9341 161.516 37.5156 160.984 36.8307ZM126.058 31.1996C124.88 30.0962 123.284 29.944 121.878 30.6289C121.232 30.9333 121.08 31.8464 121.422 32.4171C121.802 33.064 122.562 33.1781 123.208 32.8737C123.056 32.9498 123.322 32.8357 123.474 32.7976C123.474 32.7976 123.702 32.7976 123.778 32.7976H123.854C123.854 32.7976 123.816 32.7976 123.778 32.7976C123.854 32.7976 123.892 32.8357 123.968 32.8357L124.044 32.8737C124.006 32.8737 124.196 32.9879 124.234 33.0259C125.45 34.1674 127.274 32.3411 126.058 31.1996Z" fill="#583ED7"/>
<path fill-rule="evenodd" clip-rule="evenodd" d="M227.186 142.719C225.932 144.355 223.652 145.611 221.105 146.219C218.673 146.79 216.013 146.752 213.695 145.877L213.505 145.801C211.795 145.078 210.122 143.632 209.476 142.11C209.21 141.501 209.134 140.893 209.324 140.322C209.476 139.789 209.856 139.333 210.426 138.914C210.616 138.8 210.882 138.762 211.11 138.838C211.414 138.876 211.719 139.028 211.871 139.219C212.859 140.284 214.303 141.311 215.975 141.273C217.267 141.273 218.369 140.741 219.395 140.17L220.117 139.751C220.839 139.333 221.523 138.99 222.36 138.8C223.804 138.496 225.552 139.066 226.616 139.98C227.072 140.398 227.414 140.855 227.528 141.387C227.642 141.806 227.528 142.262 227.186 142.719ZM219.699 113.993C222.588 115.743 226.958 119.814 223.842 124.151C220.193 127.956 214.987 123.581 212.403 121.602C210.008 120.08 207.31 123.999 209.552 125.788C228.174 139.599 235.737 114.449 221.143 111.938C219.547 111.672 218.939 113.46 219.699 113.993ZM187.32 87.1686L188.156 86.9403L188.992 86.712L189.562 86.5598C193.477 85.5325 197.771 84.6193 201.648 85.0759C203.054 85.2281 204.194 86.0271 204.422 87.511C204.574 88.7666 203.776 90.3646 202.408 90.5929C197.847 91.3158 193.211 91.0875 188.65 91.8485C186.37 92.229 184.128 92.6856 181.848 93.1041C180.137 93.4085 178.351 93.5226 176.603 93.789L177.021 93.827C177.173 93.827 177.135 94.0934 176.983 94.0553C176.413 93.9792 175.843 93.9792 175.273 94.0173L175.045 94.0553C174.665 94.0934 174.437 93.6748 174.779 93.4465C176.907 92.0007 178.693 90.4407 181.05 89.3754C183.026 88.5003 185.154 87.7393 187.32 87.1686ZM222.854 84.9618C225.856 81.9179 232.24 83.0974 235.813 84.4671C237.865 85.2662 239.803 86.2554 241.399 87.7773L241.551 87.9295L241.779 88.1578C242.882 89.2232 244.098 90.7071 243.908 92.229C243.87 92.4573 243.756 92.7236 243.49 92.7617C242.045 93.028 240.639 92.267 239.347 91.8105L238.473 91.5061C237.143 91.0495 235.851 90.631 234.483 90.3266C232.811 89.9461 231.062 89.7178 229.352 89.7559C227.604 89.7939 225.742 90.2885 224.07 89.5656C222.208 88.8046 221.257 86.5598 222.854 84.9618ZM193.211 109.465C192.451 110.264 191.425 110.682 190.132 110.416C189.106 110.226 187.206 109.199 185.648 107.639C184.584 106.573 183.71 105.241 183.482 103.682C183.444 103.339 183.254 103.073 182.988 102.959C182.798 102.844 182.532 102.768 182.228 102.806C182 102.844 181.734 102.921 181.544 103.035C181.164 103.263 181.012 103.567 180.974 103.796C180.67 106.041 181.544 108.285 182.912 110.188C184.736 112.737 187.434 114.601 189.03 115.058C191.729 115.819 194.617 115.21 196.707 113.308C198.379 111.786 199.253 109.845 200.051 107.791L200.203 107.41C200.393 106.954 200.545 106.497 200.735 106.041C201.115 105.127 201.001 104.366 200.621 103.758C200.203 103.073 199.443 102.616 198.607 102.464C197.847 102.312 197.011 102.464 196.365 102.959C195.795 103.377 195.377 103.986 195.225 104.937C194.959 106.459 194.389 108.209 193.325 109.351L193.211 109.465ZM239.689 100.638C239.043 100.295 238.549 100.219 237.865 100.409C237.485 100.524 237.105 100.752 236.801 101.056C236.497 101.361 236.307 101.741 236.193 102.122C236.003 103.149 235.433 104.1 234.635 104.709C233.951 105.242 233.115 105.508 232.164 105.356C231.138 105.203 230.188 104.519 229.504 103.758C229.314 103.529 229.162 103.301 229.01 103.073L228.934 102.921C228.592 102.388 228.288 101.855 227.832 101.475C227.642 101.323 227.414 101.208 227.148 101.208C227.034 101.208 226.958 101.208 226.844 101.246C225.818 102.274 225.628 103.035 225.666 103.796C225.704 104.595 226.008 105.432 226.54 106.155C227.756 107.943 230.036 109.389 231.556 109.731C233.647 110.188 235.737 109.655 237.447 108.476C239.157 107.258 240.449 105.394 240.867 103.263C240.981 102.768 240.905 102.198 240.715 101.741C240.487 101.284 240.183 100.904 239.689 100.638Z" fill="#583ED7"/>
</svg>
